<?xml version="1.0" encoding="UTF-8" standalone="no"?>
<!DOCTYPE svg PUBLIC "-//W3C//DTD SVG 1.1//EN"
 "http://www.w3.org/Graphics/SVG/1.1/DTD/svg11.dtd">
<!-- Generated by graphviz version 2.38.0 (20140413.2041)
 -->
<!-- Title: main Pages: 1 -->
<svg width="688pt" height="1018pt"
 viewBox="0.00 0.00 688.00 1018.00" xmlns="http://www.w3.org/2000/svg" xmlns:xlink="http://www.w3.org/1999/xlink">
<g id="graph0" class="graph" transform="scale(1 1) rotate(0) translate(4 1014)">
<title>main</title>
<polygon fill="white" stroke="none" points="-4,4 -4,-1014 684,-1014 684,4 -4,4"/>
<!-- 16 -->
<g id="node1" class="node"><title>16</title>
<polygon fill="none" stroke="black" points="431,-690 371,-690 371,-654 431,-654 431,-690"/>
<text text-anchor="middle" x="401" y="-668.3" font-family="Times,serif" font-size="14.00">16: skip</text>
</g>
<!-- 10 -->
<g id="node7" class="node"><title>10</title>
<polygon fill="grey" stroke="grey" points="507.5,-603 292.5,-603 292.5,-567 507.5,-567 507.5,-603"/>
<text text-anchor="middle" x="400" y="-581.3" font-family="Times,serif" font-size="14.00">10: tmp:= call(@readdir, (dir_info))</text>
</g>
<!-- 16&#45;&gt;10 -->
<g id="edge1" class="edge"><title>16&#45;&gt;10</title>
<path fill="none" stroke="black" d="M398.072,-653.962C397.225,-648.269 396.418,-641.878 396,-636 395.471,-628.561 395.744,-620.503 396.341,-613.074"/>
<polygon fill="black" stroke="black" points="399.824,-613.421 397.351,-603.119 392.86,-612.714 399.824,-613.421"/>
</g>
<!-- 16&#45;&gt;10 -->
<g id="edge13" class="edge"><title>16&#45;&gt;10</title>
<path fill="none" stroke="red" d="M400.798,-653.799C400.661,-642.163 400.477,-626.548 400.32,-613.237"/>
<polygon fill="red" stroke="red" points="403.82,-613.134 400.202,-603.175 396.82,-613.216 403.82,-613.134"/>
<text text-anchor="middle" x="445" y="-624.8" font-family="Times,serif" font-size="14.00">(main,dir_info),</text>
</g>
<!-- 15 -->
<g id="node2" class="node"><title>15</title>
<polygon fill="none" stroke="black" points="425,-516 365,-516 365,-480 425,-480 425,-516"/>
<text text-anchor="middle" x="395" y="-494.3" font-family="Times,serif" font-size="14.00">15: skip</text>
</g>
<!-- 11 -->
<g id="node6" class="node"><title>11</title>
<polygon fill="none" stroke="black" points="461,-429 315,-429 315,-393 461,-393 461,-429"/>
<text text-anchor="middle" x="388" y="-407.3" font-family="Times,serif" font-size="14.00">11: set(ptr,(void *)tmp)</text>
</g>
<!-- 15&#45;&gt;11 -->
<g id="edge2" class="edge"><title>15&#45;&gt;11</title>
<path fill="none" stroke="black" d="M384.124,-479.834C381.22,-474.348 378.479,-468.11 377,-462 375.189,-454.517 375.862,-446.373 377.547,-438.872"/>
<polygon fill="black" stroke="black" points="380.939,-439.743 380.333,-429.165 374.21,-437.812 380.939,-439.743"/>
</g>
<!-- 15&#45;&gt;11 -->
<g id="edge14" class="edge"><title>15&#45;&gt;11</title>
<path fill="none" stroke="red" d="M393.583,-479.799C392.625,-468.163 391.339,-452.548 390.243,-439.237"/>
<polygon fill="red" stroke="red" points="393.723,-438.854 389.414,-429.175 386.747,-439.429 393.723,-438.854"/>
<text text-anchor="middle" x="425.5" y="-450.8" font-family="Times,serif" font-size="14.00">(main,tmp),</text>
</g>
<!-- 14 -->
<g id="node3" class="node"><title>14</title>
<polygon fill="none" stroke="black" points="370,-182 310,-182 310,-146 370,-146 370,-182"/>
<text text-anchor="middle" x="340" y="-160.3" font-family="Times,serif" font-size="14.00">14: skip</text>
</g>
<!-- 6 -->
<g id="node11" class="node"><title>6</title>
<polygon fill="none" stroke="black" points="377,-109 303,-109 303,-73 377,-73 377,-109"/>
<text text-anchor="middle" x="340" y="-87.3" font-family="Times,serif" font-size="14.00">6: return 0</text>
</g>
<!-- 14&#45;&gt;6 -->
<g id="edge3" class="edge"><title>14&#45;&gt;6</title>
<path fill="none" stroke="black" d="M340,-145.813C340,-137.789 340,-128.047 340,-119.069"/>
<polygon fill="black" stroke="black" points="343.5,-119.029 340,-109.029 336.5,-119.029 343.5,-119.029"/>
</g>
<!-- 13 -->
<g id="node4" class="node"><title>13</title>
<polygon fill="grey" stroke="grey" points="680,-255 0,-255 0,-219 680,-219 680,-255"/>
<text text-anchor="middle" x="340" y="-233.3" font-family="Times,serif" font-size="14.00">13: call(@strncpy((char */* __restrict &#160;*/)StartOf(name), (char const &#160;&#160;*/* __restrict &#160;*/)StartOf(*p.d_name), (size_t )20))</text>
</g>
<!-- 13&#45;&gt;14 -->
<g id="edge4" class="edge"><title>13&#45;&gt;14</title>
<path fill="none" stroke="black" d="M340,-218.813C340,-210.789 340,-201.047 340,-192.069"/>
<polygon fill="black" stroke="black" points="343.5,-192.029 340,-182.029 336.5,-192.029 343.5,-192.029"/>
</g>
<!-- 12 -->
<g id="node5" class="node"><title>12</title>
<polygon fill="none" stroke="black" points="459,-342 287,-342 287,-306 459,-306 459,-342"/>
<text text-anchor="middle" x="373" y="-320.3" font-family="Times,serif" font-size="14.00">12: set(p,(struct dirent *)ptr)</text>
</g>
<!-- 12&#45;&gt;13 -->
<g id="edge5" class="edge"><title>12&#45;&gt;13</title>
<path fill="none" stroke="black" d="M362.737,-305.927C359.652,-300.342 356.442,-294.023 354,-288 351.066,-280.763 348.515,-272.699 346.423,-265.196"/>
<polygon fill="black" stroke="black" points="349.787,-264.226 343.863,-255.443 343.016,-266.004 349.787,-264.226"/>
</g>
<!-- 12&#45;&gt;13 -->
<g id="edge15" class="edge"><title>12&#45;&gt;13</title>
<path fill="none" stroke="red" d="M366.322,-305.799C361.76,-294.047 355.622,-278.238 350.421,-264.842"/>
<polygon fill="red" stroke="red" points="353.55,-263.231 346.668,-255.175 347.025,-265.764 353.55,-263.231"/>
<text text-anchor="middle" x="385" y="-276.8" font-family="Times,serif" font-size="14.00">(main,p),</text>
</g>
<!-- 11&#45;&gt;12 -->
<g id="edge6" class="edge"><title>11&#45;&gt;12</title>
<path fill="none" stroke="black" d="M377.124,-392.834C374.22,-387.348 371.479,-381.11 370,-375 368.248,-367.762 368.004,-359.771 368.455,-352.34"/>
<polygon fill="black" stroke="black" points="371.941,-352.65 369.47,-342.347 364.977,-351.942 371.941,-352.65"/>
</g>
<!-- 11&#45;&gt;12 -->
<g id="edge16" class="edge"><title>11&#45;&gt;12</title>
<path fill="none" stroke="red" d="M384.965,-392.799C382.911,-381.163 380.156,-365.548 377.806,-352.237"/>
<polygon fill="red" stroke="red" points="381.216,-351.415 376.031,-342.175 374.322,-352.632 381.216,-351.415"/>
<text text-anchor="middle" x="412" y="-363.8" font-family="Times,serif" font-size="14.00">(main,ptr),</text>
</g>
<!-- 10&#45;&gt;15 -->
<g id="edge7" class="edge"><title>10&#45;&gt;15</title>
<path fill="none" stroke="black" d="M398.988,-566.799C398.304,-555.163 397.385,-539.548 396.602,-526.237"/>
<polygon fill="black" stroke="black" points="400.092,-525.953 396.01,-516.175 393.104,-526.364 400.092,-525.953"/>
</g>
<!-- 10&#45;&gt;15 -->
<g id="edge17" class="edge"><title>10&#45;&gt;15</title>
<path fill="none" stroke="red" d="M402.486,-566.837C403.521,-557.171 404.229,-544.888 403,-534 402.713,-531.453 402.311,-528.821 401.84,-526.197"/>
<polygon fill="red" stroke="red" points="405.245,-525.383 399.767,-516.314 398.394,-526.82 405.245,-525.383"/>
<text text-anchor="middle" x="437.5" y="-537.8" font-family="Times,serif" font-size="14.00">(main,tmp),</text>
</g>
<!-- 9 -->
<g id="node8" class="node"><title>9</title>
<polygon fill="grey" stroke="grey" points="499,-777 287,-777 287,-741 499,-741 499,-777"/>
<text text-anchor="middle" x="393" y="-755.3" font-family="Times,serif" font-size="14.00">9: dir_info:= call(@opendir, (\&quot;.\&quot;))</text>
</g>
<!-- 9&#45;&gt;16 -->
<g id="edge8" class="edge"><title>9&#45;&gt;16</title>
<path fill="none" stroke="black" d="M388.318,-740.783C386.338,-731.099 384.917,-718.817 387,-708 387.527,-705.263 388.266,-702.467 389.133,-699.709"/>
<polygon fill="black" stroke="black" points="392.517,-700.645 392.674,-690.052 385.945,-698.235 392.517,-700.645"/>
</g>
<!-- 9&#45;&gt;16 -->
<g id="edge18" class="edge"><title>9&#45;&gt;16</title>
<path fill="none" stroke="red" d="M394.619,-740.799C395.714,-729.163 397.184,-713.548 398.437,-700.237"/>
<polygon fill="red" stroke="red" points="401.931,-700.459 399.383,-690.175 394.962,-699.803 401.931,-700.459"/>
<text text-anchor="middle" x="442" y="-711.8" font-family="Times,serif" font-size="14.00">(main,dir_info),</text>
</g>
<!-- 8 -->
<g id="node9" class="node"><title>8</title>
<polygon fill="none" stroke="black" points="395,-850 201,-850 201,-814 395,-814 395,-850"/>
<text text-anchor="middle" x="298" y="-828.3" font-family="Times,serif" font-size="14.00">8: set(name,(char *)__cil_tmp6)</text>
</g>
<!-- 8&#45;&gt;13 -->
<g id="edge19" class="edge"><title>8&#45;&gt;13</title>
<path fill="none" stroke="red" d="M282.137,-813.75C271.34,-800.185 259,-780.252 259,-760 259,-760 259,-760 259,-323 259,-296.843 279.351,-275.552 299.652,-260.821"/>
<polygon fill="red" stroke="red" points="301.716,-263.649 307.987,-255.11 297.759,-257.875 301.716,-263.649"/>
<text text-anchor="middle" x="296.5" y="-537.8" font-family="Times,serif" font-size="14.00">(main,name),</text>
</g>
<!-- 8&#45;&gt;9 -->
<g id="edge9" class="edge"><title>8&#45;&gt;9</title>
<path fill="none" stroke="black" d="M320.997,-813.813C333.366,-804.569 348.788,-793.043 362.182,-783.032"/>
<polygon fill="black" stroke="black" points="364.3,-785.819 370.215,-777.029 360.11,-780.212 364.3,-785.819"/>
</g>
<!-- 7 -->
<g id="node10" class="node"><title>7</title>
<polygon fill="none" stroke="black" points="419,-937 177,-937 177,-901 419,-901 419,-937"/>
<text text-anchor="middle" x="298" y="-915.3" font-family="Times,serif" font-size="14.00">7: alloc(__cil_tmp6,[SizeOf(char )*100])</text>
</g>
<!-- 7&#45;&gt;8 -->
<g id="edge10" class="edge"><title>7&#45;&gt;8</title>
<path fill="none" stroke="black" d="M296.828,-900.919C296.49,-895.222 296.167,-888.84 296,-883 295.79,-875.648 295.938,-867.691 296.229,-860.333"/>
<polygon fill="black" stroke="black" points="299.736,-860.282 296.735,-850.121 292.745,-859.936 299.736,-860.282"/>
</g>
<!-- 7&#45;&gt;8 -->
<g id="edge20" class="edge"><title>7&#45;&gt;8</title>
<path fill="none" stroke="red" d="M298,-900.799C298,-889.163 298,-873.548 298,-860.237"/>
<polygon fill="red" stroke="red" points="301.5,-860.175 298,-850.175 294.5,-860.175 301.5,-860.175"/>
<text text-anchor="middle" x="351.5" y="-871.8" font-family="Times,serif" font-size="14.00">(main,__cil_tmp6),</text>
</g>
<!-- EXIT -->
<g id="node12" class="node"><title>EXIT</title>
<polygon fill="none" stroke="black" points="378.5,-36 301.5,-36 301.5,-0 378.5,-0 378.5,-36"/>
<text text-anchor="middle" x="340" y="-14.3" font-family="Times,serif" font-size="14.00">EXIT: skip</text>
</g>
<!-- 6&#45;&gt;EXIT -->
<g id="edge11" class="edge"><title>6&#45;&gt;EXIT</title>
<path fill="none" stroke="black" d="M340,-72.8129C340,-64.7895 340,-55.0475 340,-46.0691"/>
<polygon fill="black" stroke="black" points="343.5,-46.0288 340,-36.0288 336.5,-46.0289 343.5,-46.0288"/>
</g>
<!-- ENTRY -->
<g id="node13" class="node"><title>ENTRY</title>
<polygon fill="none" stroke="black" points="344,-1010 252,-1010 252,-974 344,-974 344,-1010"/>
<text text-anchor="middle" x="298" y="-988.3" font-family="Times,serif" font-size="14.00">ENTRY: skip</text>
</g>
<!-- ENTRY&#45;&gt;7 -->
<g id="edge12" class="edge"><title>ENTRY&#45;&gt;7</title>
<path fill="none" stroke="black" d="M298,-973.813C298,-965.789 298,-956.047 298,-947.069"/>
<polygon fill="black" stroke="black" points="301.5,-947.029 298,-937.029 294.5,-947.029 301.5,-947.029"/>
</g>
</g>
</svg>
