<?xml version="1.0" encoding="UTF-8" standalone="no"?>
<!DOCTYPE svg PUBLIC "-//W3C//DTD SVG 1.1//EN"
 "http://www.w3.org/Graphics/SVG/1.1/DTD/svg11.dtd">
<!-- Generated by graphviz version 2.38.0 (20140413.2041)
 -->
<!-- Title: main Pages: 1 -->
<svg width="688pt" height="908pt"
 viewBox="0.00 0.00 688.00 908.00" xmlns="http://www.w3.org/2000/svg" xmlns:xlink="http://www.w3.org/1999/xlink">
<g id="graph0" class="graph" transform="scale(1 1) rotate(0) translate(4 904)">
<title>main</title>
<polygon fill="white" stroke="none" points="-4,4 -4,-904 684,-904 684,4 -4,4"/>
<!-- 16 -->
<g id="node1" class="node"><title>16</title>
<polygon fill="none" stroke="black" points="370,-612 310,-612 310,-576 370,-576 370,-612"/>
<text text-anchor="middle" x="340" y="-590.3" font-family="Times,serif" font-size="14.00">16: skip</text>
</g>
<!-- 10 -->
<g id="node7" class="node"><title>10</title>
<polygon fill="grey" stroke="grey" points="447.5,-540 232.5,-540 232.5,-504 447.5,-504 447.5,-540"/>
<text text-anchor="middle" x="340" y="-518.3" font-family="Times,serif" font-size="14.00">10: tmp:= call(@readdir, (dir_info))</text>
</g>
<!-- 16&#45;&gt;10 -->
<g id="edge1" class="edge"><title>16&#45;&gt;10</title>
<path fill="none" stroke="black" d="M340,-575.697C340,-567.983 340,-558.712 340,-550.112"/>
<polygon fill="black" stroke="black" points="343.5,-550.104 340,-540.104 336.5,-550.104 343.5,-550.104"/>
</g>
<!-- 15 -->
<g id="node2" class="node"><title>15</title>
<polygon fill="none" stroke="black" points="370,-468 310,-468 310,-432 370,-432 370,-468"/>
<text text-anchor="middle" x="340" y="-446.3" font-family="Times,serif" font-size="14.00">15: skip</text>
</g>
<!-- 11 -->
<g id="node6" class="node"><title>11</title>
<polygon fill="none" stroke="black" points="413,-396 267,-396 267,-360 413,-360 413,-396"/>
<text text-anchor="middle" x="340" y="-374.3" font-family="Times,serif" font-size="14.00">11: set(ptr,(void *)tmp)</text>
</g>
<!-- 15&#45;&gt;11 -->
<g id="edge2" class="edge"><title>15&#45;&gt;11</title>
<path fill="none" stroke="black" d="M340,-431.697C340,-423.983 340,-414.712 340,-406.112"/>
<polygon fill="black" stroke="black" points="343.5,-406.104 340,-396.104 336.5,-406.104 343.5,-406.104"/>
</g>
<!-- 14 -->
<g id="node3" class="node"><title>14</title>
<polygon fill="none" stroke="black" points="370,-180 310,-180 310,-144 370,-144 370,-180"/>
<text text-anchor="middle" x="340" y="-158.3" font-family="Times,serif" font-size="14.00">14: skip</text>
</g>
<!-- 6 -->
<g id="node11" class="node"><title>6</title>
<polygon fill="none" stroke="black" points="377,-108 303,-108 303,-72 377,-72 377,-108"/>
<text text-anchor="middle" x="340" y="-86.3" font-family="Times,serif" font-size="14.00">6: return 0</text>
</g>
<!-- 14&#45;&gt;6 -->
<g id="edge3" class="edge"><title>14&#45;&gt;6</title>
<path fill="none" stroke="black" d="M340,-143.697C340,-135.983 340,-126.712 340,-118.112"/>
<polygon fill="black" stroke="black" points="343.5,-118.104 340,-108.104 336.5,-118.104 343.5,-118.104"/>
</g>
<!-- 13 -->
<g id="node4" class="node"><title>13</title>
<polygon fill="grey" stroke="grey" points="680,-252 0,-252 0,-216 680,-216 680,-252"/>
<text text-anchor="middle" x="340" y="-230.3" font-family="Times,serif" font-size="14.00">13: call(@strncpy((char */* __restrict &#160;*/)StartOf(name), (char const &#160;&#160;*/* __restrict &#160;*/)StartOf(*p.d_name), (size_t )20))</text>
</g>
<!-- 13&#45;&gt;14 -->
<g id="edge4" class="edge"><title>13&#45;&gt;14</title>
<path fill="none" stroke="black" d="M340,-215.697C340,-207.983 340,-198.712 340,-190.112"/>
<polygon fill="black" stroke="black" points="343.5,-190.104 340,-180.104 336.5,-190.104 343.5,-190.104"/>
</g>
<!-- 12 -->
<g id="node5" class="node"><title>12</title>
<polygon fill="none" stroke="black" points="426,-324 254,-324 254,-288 426,-288 426,-324"/>
<text text-anchor="middle" x="340" y="-302.3" font-family="Times,serif" font-size="14.00">12: set(p,(struct dirent *)ptr)</text>
</g>
<!-- 12&#45;&gt;13 -->
<g id="edge5" class="edge"><title>12&#45;&gt;13</title>
<path fill="none" stroke="black" d="M340,-287.697C340,-279.983 340,-270.712 340,-262.112"/>
<polygon fill="black" stroke="black" points="343.5,-262.104 340,-252.104 336.5,-262.104 343.5,-262.104"/>
</g>
<!-- 11&#45;&gt;12 -->
<g id="edge6" class="edge"><title>11&#45;&gt;12</title>
<path fill="none" stroke="black" d="M340,-359.697C340,-351.983 340,-342.712 340,-334.112"/>
<polygon fill="black" stroke="black" points="343.5,-334.104 340,-324.104 336.5,-334.104 343.5,-334.104"/>
</g>
<!-- 10&#45;&gt;15 -->
<g id="edge7" class="edge"><title>10&#45;&gt;15</title>
<path fill="none" stroke="black" d="M340,-503.697C340,-495.983 340,-486.712 340,-478.112"/>
<polygon fill="black" stroke="black" points="343.5,-478.104 340,-468.104 336.5,-478.104 343.5,-478.104"/>
</g>
<!-- 9 -->
<g id="node8" class="node"><title>9</title>
<polygon fill="grey" stroke="grey" points="446,-684 234,-684 234,-648 446,-648 446,-684"/>
<text text-anchor="middle" x="340" y="-662.3" font-family="Times,serif" font-size="14.00">9: dir_info:= call(@opendir, (\&quot;.\&quot;))</text>
</g>
<!-- 9&#45;&gt;16 -->
<g id="edge8" class="edge"><title>9&#45;&gt;16</title>
<path fill="none" stroke="black" d="M340,-647.697C340,-639.983 340,-630.712 340,-622.112"/>
<polygon fill="black" stroke="black" points="343.5,-622.104 340,-612.104 336.5,-622.104 343.5,-622.104"/>
</g>
<!-- 8 -->
<g id="node9" class="node"><title>8</title>
<polygon fill="none" stroke="black" points="437,-756 243,-756 243,-720 437,-720 437,-756"/>
<text text-anchor="middle" x="340" y="-734.3" font-family="Times,serif" font-size="14.00">8: set(name,(char *)__cil_tmp6)</text>
</g>
<!-- 8&#45;&gt;9 -->
<g id="edge9" class="edge"><title>8&#45;&gt;9</title>
<path fill="none" stroke="black" d="M340,-719.697C340,-711.983 340,-702.712 340,-694.112"/>
<polygon fill="black" stroke="black" points="343.5,-694.104 340,-684.104 336.5,-694.104 343.5,-694.104"/>
</g>
<!-- 7 -->
<g id="node10" class="node"><title>7</title>
<polygon fill="none" stroke="black" points="461,-828 219,-828 219,-792 461,-792 461,-828"/>
<text text-anchor="middle" x="340" y="-806.3" font-family="Times,serif" font-size="14.00">7: alloc(__cil_tmp6,[SizeOf(char )*100])</text>
</g>
<!-- 7&#45;&gt;8 -->
<g id="edge10" class="edge"><title>7&#45;&gt;8</title>
<path fill="none" stroke="black" d="M340,-791.697C340,-783.983 340,-774.712 340,-766.112"/>
<polygon fill="black" stroke="black" points="343.5,-766.104 340,-756.104 336.5,-766.104 343.5,-766.104"/>
</g>
<!-- EXIT -->
<g id="node12" class="node"><title>EXIT</title>
<polygon fill="none" stroke="black" points="378.5,-36 301.5,-36 301.5,-0 378.5,-0 378.5,-36"/>
<text text-anchor="middle" x="340" y="-14.3" font-family="Times,serif" font-size="14.00">EXIT: skip</text>
</g>
<!-- 6&#45;&gt;EXIT -->
<g id="edge11" class="edge"><title>6&#45;&gt;EXIT</title>
<path fill="none" stroke="black" d="M340,-71.6966C340,-63.9827 340,-54.7125 340,-46.1124"/>
<polygon fill="black" stroke="black" points="343.5,-46.1043 340,-36.1043 336.5,-46.1044 343.5,-46.1043"/>
</g>
<!-- ENTRY -->
<g id="node13" class="node"><title>ENTRY</title>
<polygon fill="none" stroke="black" points="386,-900 294,-900 294,-864 386,-864 386,-900"/>
<text text-anchor="middle" x="340" y="-878.3" font-family="Times,serif" font-size="14.00">ENTRY: skip</text>
</g>
<!-- ENTRY&#45;&gt;7 -->
<g id="edge12" class="edge"><title>ENTRY&#45;&gt;7</title>
<path fill="none" stroke="black" d="M340,-863.697C340,-855.983 340,-846.712 340,-838.112"/>
<polygon fill="black" stroke="black" points="343.5,-838.104 340,-828.104 336.5,-838.104 343.5,-838.104"/>
</g>
</g>
</svg>
