<?xml version="1.0" encoding="UTF-8" standalone="no"?>
<!DOCTYPE svg PUBLIC "-//W3C//DTD SVG 1.1//EN"
 "http://www.w3.org/Graphics/SVG/1.1/DTD/svg11.dtd">
<!-- Generated by graphviz version 2.38.0 (20140413.2041)
 -->
<!-- Title: _G_ Pages: 1 -->
<svg width="161pt" height="332pt"
 viewBox="0.00 0.00 161.00 332.00" xmlns="http://www.w3.org/2000/svg" xmlns:xlink="http://www.w3.org/1999/xlink">
<g id="graph0" class="graph" transform="scale(1 1) rotate(0) translate(4 328)">
<title>_G_</title>
<polygon fill="white" stroke="none" points="-4,4 -4,-328 157,-328 157,4 -4,4"/>
<!-- 19 -->
<g id="node1" class="node"><title>19</title>
<polygon fill="none" stroke="black" points="106.5,-108 46.5,-108 46.5,-72 106.5,-72 106.5,-108"/>
<text text-anchor="middle" x="76.5" y="-86.3" font-family="Times,serif" font-size="14.00">19: skip</text>
</g>
<!-- EXIT -->
<g id="node4" class="node"><title>EXIT</title>
<polygon fill="none" stroke="black" points="115,-36 38,-36 38,-0 115,-0 115,-36"/>
<text text-anchor="middle" x="76.5" y="-14.3" font-family="Times,serif" font-size="14.00">EXIT: skip</text>
</g>
<!-- 19&#45;&gt;EXIT -->
<g id="edge1" class="edge"><title>19&#45;&gt;EXIT</title>
<path fill="none" stroke="black" d="M76.5,-71.6966C76.5,-63.9827 76.5,-54.7125 76.5,-46.1124"/>
<polygon fill="black" stroke="black" points="80.0001,-46.1043 76.5,-36.1043 73.0001,-46.1044 80.0001,-46.1043"/>
</g>
<!-- 18 -->
<g id="node2" class="node"><title>18</title>
<polygon fill="grey" stroke="grey" points="134.5,-180 18.5,-180 18.5,-144 134.5,-144 134.5,-180"/>
<text text-anchor="middle" x="76.5" y="-158.3" font-family="Times,serif" font-size="14.00">18: call(@main())</text>
</g>
<!-- 18&#45;&gt;19 -->
<g id="edge2" class="edge"><title>18&#45;&gt;19</title>
<path fill="none" stroke="black" d="M76.5,-143.697C76.5,-135.983 76.5,-126.712 76.5,-118.112"/>
<polygon fill="black" stroke="black" points="80.0001,-118.104 76.5,-108.104 73.0001,-118.104 80.0001,-118.104"/>
</g>
<!-- 17 -->
<g id="node3" class="node"><title>17</title>
<polygon fill="none" stroke="black" points="153,-252 0,-252 0,-216 153,-216 153,-252"/>
<text text-anchor="middle" x="76.5" y="-230.3" font-family="Times,serif" font-size="14.00">17: falloc(@main, main)</text>
</g>
<!-- 17&#45;&gt;18 -->
<g id="edge3" class="edge"><title>17&#45;&gt;18</title>
<path fill="none" stroke="black" d="M76.5,-215.697C76.5,-207.983 76.5,-198.712 76.5,-190.112"/>
<polygon fill="black" stroke="black" points="80.0001,-190.104 76.5,-180.104 73.0001,-190.104 80.0001,-190.104"/>
</g>
<!-- ENTRY -->
<g id="node5" class="node"><title>ENTRY</title>
<polygon fill="none" stroke="black" points="122.5,-324 30.5,-324 30.5,-288 122.5,-288 122.5,-324"/>
<text text-anchor="middle" x="76.5" y="-302.3" font-family="Times,serif" font-size="14.00">ENTRY: skip</text>
</g>
<!-- ENTRY&#45;&gt;17 -->
<g id="edge4" class="edge"><title>ENTRY&#45;&gt;17</title>
<path fill="none" stroke="black" d="M76.5,-287.697C76.5,-279.983 76.5,-270.712 76.5,-262.112"/>
<polygon fill="black" stroke="black" points="80.0001,-262.104 76.5,-252.104 73.0001,-262.104 80.0001,-262.104"/>
</g>
</g>
</svg>
