<?xml version="1.0" encoding="UTF-8" standalone="no"?>
<!DOCTYPE svg PUBLIC "-//W3C//DTD SVG 1.1//EN"
 "http://www.w3.org/Graphics/SVG/1.1/DTD/svg11.dtd">
<!-- Generated by graphviz version 2.36.0 (20140111.2315)
 -->
<!-- Title: _G_ Pages: 1 -->
<svg width="1046pt" height="1100pt"
 viewBox="0.00 0.00 1046.00 1100.00" xmlns="http://www.w3.org/2000/svg" xmlns:xlink="http://www.w3.org/1999/xlink">
<g id="graph0" class="graph" transform="scale(1 1) rotate(0) translate(4 1096)">
<title>_G_</title>
<polygon fill="white" stroke="none" points="-4,4 -4,-1096 1042,-1096 1042,4 -4,4"/>
<!-- 636 -->
<g id="node1" class="node"><title>636</title>
<polygon fill="none" stroke="black" points="172.25,-124 105.75,-124 105.75,-88 172.25,-88 172.25,-124"/>
<text text-anchor="middle" x="139" y="-102.3" font-family="Times,serif" font-size="14.00">636: skip</text>
</g>
<!-- EXIT -->
<g id="node12" class="node"><title>EXIT</title>
<polygon fill="none" stroke="black" points="516.25,-36 439.75,-36 439.75,-0 516.25,-0 516.25,-36"/>
<text text-anchor="middle" x="478" y="-14.3" font-family="Times,serif" font-size="14.00">EXIT: skip</text>
</g>
<!-- 636&#45;&gt;EXIT -->
<g id="edge1" class="edge"><title>636&#45;&gt;EXIT</title>
<path fill="none" stroke="black" d="M124.372,-87.6814C117.098,-76.912 111.494,-63.3783 120,-54 140.396,-31.5123 336.375,-22.9931 429.419,-20.1968"/>
<polygon fill="black" stroke="black" points="429.54,-23.6948 439.434,-19.906 429.337,-16.6978 429.54,-23.6948"/>
</g>
<!-- 636&#45;&gt;EXIT -->
<g id="edge13" class="edge"><title>636&#45;&gt;EXIT</title>
<path fill="none" stroke="red" d="M134.079,-87.731C132.074,-76.7042 131.847,-62.8647 140,-54 159.232,-33.09 340.884,-23.8313 429.646,-20.5286"/>
<polygon fill="red" stroke="red" points="429.87,-24.0229 439.737,-20.1639 429.617,-17.0274 429.87,-24.0229"/>
<text text-anchor="middle" x="176.5" y="-58.3" font-family="Times,serif" font-size="14.00">MatchGecos,</text>
</g>
<!-- 635 -->
<g id="node2" class="node"><title>635</title>
<polygon fill="grey" stroke="grey" points="450,-212 328,-212 328,-176 450,-176 450,-212"/>
<text text-anchor="middle" x="389" y="-190.3" font-family="Times,serif" font-size="14.00">635: call(@main())</text>
</g>
<!-- 635&#45;&gt;636 -->
<g id="edge2" class="edge"><title>635&#45;&gt;636</title>
<path fill="none" stroke="black" d="M327.693,-178.656C323.068,-177.711 318.466,-176.814 314,-176 256.616,-165.543 235.391,-185.59 184,-158 172.735,-151.952 162.949,-141.896 155.406,-132.305"/>
<polygon fill="black" stroke="black" points="158.12,-130.088 149.374,-124.108 152.482,-134.237 158.12,-130.088"/>
</g>
<!-- 634 -->
<g id="node3" class="node"><title>634</title>
<polygon fill="none" stroke="black" points="160,-300 0,-300 0,-264 160,-264 160,-300"/>
<text text-anchor="middle" x="80" y="-278.3" font-family="Times,serif" font-size="14.00">634: falloc(@main, main)</text>
</g>
<!-- 634&#45;&gt;635 -->
<g id="edge3" class="edge"><title>634&#45;&gt;635</title>
<path fill="none" stroke="black" d="M100.989,-263.839C117.555,-250.658 139.554,-234.045 150,-230 218.378,-203.519 241.683,-224.124 314,-212 315.259,-211.789 316.529,-211.57 317.807,-211.344"/>
<polygon fill="black" stroke="black" points="318.533,-214.769 327.717,-209.487 317.244,-207.888 318.533,-214.769"/>
</g>
<!-- 634&#45;&gt;635 -->
<g id="edge14" class="edge"><title>634&#45;&gt;635</title>
<path fill="none" stroke="red" d="M114.891,-263.834C125.367,-258.398 136.785,-252.187 147,-246 157.651,-239.549 158.373,-234.457 170,-230 230.224,-206.912 250.472,-223.142 314,-212 315.258,-211.779 316.526,-211.552 317.802,-211.317"/>
<polygon fill="red" stroke="red" points="318.547,-214.738 327.704,-209.411 317.223,-207.865 318.547,-214.738"/>
<text text-anchor="middle" x="186" y="-234.3" font-family="Times,serif" font-size="14.00">main,</text>
</g>
<!-- 634&#45;&gt;EXIT -->
<g id="edge15" class="edge"><title>634&#45;&gt;EXIT</title>
<path fill="none" stroke="red" d="M90.1861,-263.875C119.222,-215.652 203.134,-80.5006 247,-54 276.886,-35.9452 371.05,-26.345 429.519,-21.9934"/>
<polygon fill="red" stroke="red" points="429.92,-25.4738 439.643,-21.2657 429.418,-18.4918 429.92,-25.4738"/>
<text text-anchor="middle" x="185" y="-146.3" font-family="Times,serif" font-size="14.00">main,</text>
</g>
<!-- 633 -->
<g id="node4" class="node"><title>633</title>
<polygon fill="none" stroke="black" points="282.25,-388 89.75,-388 89.75,-352 282.25,-352 282.25,-388"/>
<text text-anchor="middle" x="186" y="-366.3" font-family="Times,serif" font-size="14.00">633: falloc(@finduser, finduser)</text>
</g>
<!-- 633&#45;&gt;635 -->
<g id="edge16" class="edge"><title>633&#45;&gt;635</title>
<path fill="none" stroke="red" d="M193.29,-351.888C203.293,-329.793 222.924,-290.983 248,-264 268.076,-242.398 296.373,-226.729 322.354,-215.838"/>
<polygon fill="red" stroke="red" points="323.829,-219.017 331.801,-212.04 321.217,-212.523 323.829,-219.017"/>
<text text-anchor="middle" x="272.5" y="-278.3" font-family="Times,serif" font-size="14.00">finduser,</text>
</g>
<!-- 633&#45;&gt;634 -->
<g id="edge4" class="edge"><title>633&#45;&gt;634</title>
<path fill="none" stroke="black" d="M164.804,-351.803C148.916,-338.913 126.978,-321.114 109.395,-306.849"/>
<polygon fill="black" stroke="black" points="111.13,-303.749 101.159,-300.167 106.72,-309.185 111.13,-303.749"/>
</g>
<!-- 633&#45;&gt;EXIT -->
<g id="edge17" class="edge"><title>633&#45;&gt;EXIT</title>
<path fill="none" stroke="red" d="M212.268,-351.801C228.706,-339.485 248.662,-321.345 259,-300 283.116,-250.205 243.167,-224.385 270,-176 305.868,-111.323 380.737,-65.2302 430.176,-40.3585"/>
<polygon fill="red" stroke="red" points="431.977,-43.3733 439.401,-35.8148 428.883,-37.0937 431.977,-43.3733"/>
<text text-anchor="middle" x="294.5" y="-190.3" font-family="Times,serif" font-size="14.00">finduser,</text>
</g>
<!-- 632 -->
<g id="node5" class="node"><title>632</title>
<polygon fill="none" stroke="black" points="395.25,-476 196.75,-476 196.75,-440 395.25,-440 395.25,-476"/>
<text text-anchor="middle" x="296" y="-454.3" font-family="Times,serif" font-size="14.00">632: falloc(@recipient, recipient)</text>
</g>
<!-- 632&#45;&gt;635 -->
<g id="edge18" class="edge"><title>632&#45;&gt;635</title>
<path fill="none" stroke="red" d="M296.069,-439.932C296.596,-413.329 299.326,-360.608 312,-318 324.467,-276.087 330.956,-265.846 356,-230 358.421,-226.534 361.176,-223.07 364.036,-219.743"/>
<polygon fill="red" stroke="red" points="366.67,-222.049 370.798,-212.292 361.486,-217.345 366.67,-222.049"/>
<text text-anchor="middle" x="338" y="-322.3" font-family="Times,serif" font-size="14.00">recipient,</text>
</g>
<!-- 632&#45;&gt;633 -->
<g id="edge5" class="edge"><title>632&#45;&gt;633</title>
<path fill="none" stroke="black" d="M274.004,-439.803C257.367,-426.796 234.336,-408.79 216.008,-394.461"/>
<polygon fill="black" stroke="black" points="217.991,-391.569 207.958,-388.167 213.68,-397.083 217.991,-391.569"/>
</g>
<!-- 632&#45;&gt;EXIT -->
<g id="edge19" class="edge"><title>632&#45;&gt;EXIT</title>
<path fill="none" stroke="red" d="M308.241,-439.671C344.588,-388.073 449.925,-237.443 459,-212 479.074,-155.717 480.446,-84.7102 479.4,-46.4472"/>
<polygon fill="red" stroke="red" points="482.886,-45.989 479.035,-36.1189 475.89,-46.2363 482.886,-45.989"/>
<text text-anchor="middle" x="476" y="-234.3" font-family="Times,serif" font-size="14.00">recipient,</text>
</g>
<!-- 631 -->
<g id="node6" class="node"><title>631</title>
<polygon fill="none" stroke="black" points="621,-564 421,-564 421,-528 621,-528 621,-564"/>
<text text-anchor="middle" x="521" y="-542.3" font-family="Times,serif" font-size="14.00">631: set(@MaxAliasRecursion,0)</text>
</g>
<!-- 631&#45;&gt;635 -->
<g id="edge20" class="edge"><title>631&#45;&gt;635</title>
<path fill="none" stroke="red" d="M516.574,-527.646C509.287,-498.777 494.523,-439.013 484,-388 469.593,-318.154 498.154,-287.525 456,-230 452.655,-225.435 448.535,-221.415 443.997,-217.885"/>
<polygon fill="red" stroke="red" points="445.686,-214.8 435.454,-212.051 441.738,-220.581 445.686,-214.8"/>
<text text-anchor="middle" x="540.5" y="-366.3" font-family="Times,serif" font-size="14.00">MaxAliasRecursion,</text>
</g>
<!-- 631&#45;&gt;632 -->
<g id="edge6" class="edge"><title>631&#45;&gt;632</title>
<path fill="none" stroke="black" d="M476.278,-527.906C440.008,-514.043 388.751,-494.452 350.159,-479.701"/>
<polygon fill="black" stroke="black" points="351.228,-476.362 340.637,-476.061 348.728,-482.901 351.228,-476.362"/>
</g>
<!-- 631&#45;&gt;EXIT -->
<g id="edge21" class="edge"><title>631&#45;&gt;EXIT</title>
<path fill="none" stroke="red" d="M532.698,-527.617C550.733,-499.656 584.546,-442.31 597,-388 600.576,-372.405 604.037,-366.369 597,-352 580.422,-318.147 550.284,-331.771 530,-300 515.032,-276.555 516,-266.816 516,-239 516,-239 516,-239 516,-105 516,-83.3769 505.825,-61.1044 496.005,-44.6444"/>
<polygon fill="red" stroke="red" points="498.942,-42.7387 490.653,-36.1389 493.017,-46.4668 498.942,-42.7387"/>
<text text-anchor="middle" x="586.5" y="-278.3" font-family="Times,serif" font-size="14.00">MaxAliasRecursion,</text>
</g>
<!-- 630 -->
<g id="node7" class="node"><title>630</title>
<polygon fill="none" stroke="black" points="616,-652 426,-652 426,-616 616,-616 616,-652"/>
<text text-anchor="middle" x="521" y="-630.3" font-family="Times,serif" font-size="14.00">630: set(@SpaceSub,(char )\&#39; \&#39;)</text>
</g>
<!-- 630&#45;&gt;635 -->
<g id="edge22" class="edge"><title>630&#45;&gt;635</title>
<path fill="none" stroke="red" d="M473.784,-615.886C450.758,-604.867 425.231,-588.035 412,-564 404.284,-549.983 411.462,-543.991 412,-528 416.225,-402.454 426.775,-371.546 431,-246 431.239,-238.893 434.016,-236.44 431,-230 429.188,-226.132 426.716,-222.542 423.871,-219.253"/>
<polygon fill="red" stroke="red" points="426.256,-216.689 416.692,-212.132 421.327,-221.659 426.256,-216.689"/>
<text text-anchor="middle" x="449" y="-410.3" font-family="Times,serif" font-size="14.00">SpaceSub,</text>
</g>
<!-- 630&#45;&gt;631 -->
<g id="edge7" class="edge"><title>630&#45;&gt;631</title>
<path fill="none" stroke="black" d="M521,-615.597C521,-603.746 521,-587.817 521,-574.292"/>
<polygon fill="black" stroke="black" points="524.5,-574.084 521,-564.084 517.5,-574.084 524.5,-574.084"/>
</g>
<!-- 630&#45;&gt;EXIT -->
<g id="edge23" class="edge"><title>630&#45;&gt;EXIT</title>
<path fill="none" stroke="red" d="M584.625,-615.852C616.75,-602.936 649,-581.402 649,-547 649,-547 649,-547 649,-369 649,-353.387 646.667,-349.598 646,-334 645.696,-326.895 645.508,-325.094 646,-318 648.45,-282.635 657,-274.45 657,-239 657,-239 657,-239 657,-105 657,-46.9817 579.653,-28.0787 526.647,-21.9363"/>
<polygon fill="red" stroke="red" points="526.709,-18.4239 516.4,-20.8702 525.984,-25.3864 526.709,-18.4239"/>
<text text-anchor="middle" x="675" y="-322.3" font-family="Times,serif" font-size="14.00">SpaceSub,</text>
</g>
<!-- 629 -->
<g id="node8" class="node"><title>629</title>
<polygon fill="none" stroke="black" points="668.5,-740 437.5,-740 437.5,-704 668.5,-704 668.5,-740"/>
<text text-anchor="middle" x="553" y="-718.3" font-family="Times,serif" font-size="14.00">629: set(@MatchGecos,(enum bool )1)</text>
</g>
<!-- 629&#45;&gt;635 -->
<g id="edge24" class="edge"><title>629&#45;&gt;635</title>
<path fill="none" stroke="red" d="M575.109,-703.827C600.9,-682.292 642.266,-642.729 660,-598 683.267,-539.314 733.92,-375.563 708,-318 666.808,-226.522 540.952,-202.221 460.186,-196.268"/>
<polygon fill="red" stroke="red" points="460.289,-192.767 450.08,-195.601 459.828,-199.752 460.289,-192.767"/>
<text text-anchor="middle" x="743.5" y="-454.3" font-family="Times,serif" font-size="14.00">MatchGecos,</text>
</g>
<!-- 629&#45;&gt;630 -->
<g id="edge8" class="edge"><title>629&#45;&gt;630</title>
<path fill="none" stroke="black" d="M546.524,-703.597C542.027,-691.511 535.952,-675.184 530.857,-661.491"/>
<polygon fill="black" stroke="black" points="534.125,-660.236 527.357,-652.084 527.564,-662.677 534.125,-660.236"/>
</g>
<!-- 628 -->
<g id="node9" class="node"><title>628</title>
<polygon fill="none" stroke="black" points="765,-828 565,-828 565,-792 765,-792 765,-828"/>
<text text-anchor="middle" x="665" y="-806.3" font-family="Times,serif" font-size="14.00">628: set(@MaxAliasRecursion,0)</text>
</g>
<!-- 628&#45;&gt;631 -->
<g id="edge25" class="edge"><title>628&#45;&gt;631</title>
<path fill="none" stroke="red" d="M671.07,-791.918C679.651,-764.844 692.453,-710.954 675,-670 655.028,-623.135 606.199,-589.179 568.833,-568.968"/>
<polygon fill="red" stroke="red" points="570.087,-565.673 559.605,-564.126 566.834,-571.871 570.087,-565.673"/>
<text text-anchor="middle" x="736.5" y="-674.3" font-family="Times,serif" font-size="14.00">MaxAliasRecursion,</text>
</g>
<!-- 628&#45;&gt;629 -->
<g id="edge9" class="edge"><title>628&#45;&gt;629</title>
<path fill="none" stroke="black" d="M642.604,-791.803C625.588,-778.737 602.004,-760.628 583.302,-746.267"/>
<polygon fill="black" stroke="black" points="585.42,-743.481 575.357,-740.167 581.157,-749.033 585.42,-743.481"/>
</g>
<!-- 627 -->
<g id="node10" class="node"><title>627</title>
<polygon fill="none" stroke="black" points="920.25,-916 691.75,-916 691.75,-880 920.25,-880 920.25,-916"/>
<text text-anchor="middle" x="806" y="-894.3" font-family="Times,serif" font-size="14.00">627: falloc(@buildfname, buildfname)</text>
</g>
<!-- 627&#45;&gt;635 -->
<g id="edge26" class="edge"><title>627&#45;&gt;635</title>
<path fill="none" stroke="red" d="M805.248,-879.722C802.923,-824.718 796,-648.745 796,-503 796,-503 796,-503 796,-281 796,-213.262 577.462,-198.619 460.661,-195.63"/>
<polygon fill="red" stroke="red" points="460.452,-192.124 450.373,-195.39 460.288,-199.122 460.452,-192.124"/>
<text text-anchor="middle" x="830.5" y="-542.3" font-family="Times,serif" font-size="14.00">buildfname,</text>
</g>
<!-- 627&#45;&gt;628 -->
<g id="edge10" class="edge"><title>627&#45;&gt;628</title>
<path fill="none" stroke="black" d="M777.805,-879.803C755.999,-866.503 725.624,-847.976 701.887,-833.498"/>
<polygon fill="black" stroke="black" points="703.506,-830.386 693.146,-828.167 699.861,-836.362 703.506,-830.386"/>
</g>
<!-- 627&#45;&gt;EXIT -->
<g id="edge27" class="edge"><title>627&#45;&gt;EXIT</title>
<path fill="none" stroke="red" d="M839.594,-879.987C863.353,-865.311 891,-841.649 891,-811 891,-811 891,-811 891,-589 891,-509.938 854,-494.062 854,-415 854,-415 854,-415 854,-105 854,-38.5605 628.085,-23.4484 526.485,-20.0115"/>
<polygon fill="red" stroke="red" points="526.577,-16.5128 516.472,-19.6971 526.357,-23.5093 526.577,-16.5128"/>
<text text-anchor="middle" x="897.5" y="-454.3" font-family="Times,serif" font-size="14.00">buildfname,</text>
</g>
<!-- 626 -->
<g id="node11" class="node"><title>626</title>
<polygon fill="none" stroke="black" points="989,-1004 819,-1004 819,-968 989,-968 989,-1004"/>
<text text-anchor="middle" x="904" y="-982.3" font-family="Times,serif" font-size="14.00">626: falloc(@xalloc, xalloc)</text>
</g>
<!-- 626&#45;&gt;635 -->
<g id="edge28" class="edge"><title>626&#45;&gt;635</title>
<path fill="none" stroke="red" d="M919.235,-967.918C932.29,-951.472 949,-925.288 949,-899 949,-899 949,-899 949,-281 949,-232.112 611.269,-207.29 460.363,-198.639"/>
<polygon fill="red" stroke="red" points="460.445,-195.138 450.264,-198.068 460.05,-202.127 460.445,-195.138"/>
<text text-anchor="middle" x="967.5" y="-586.3" font-family="Times,serif" font-size="14.00">xalloc,</text>
</g>
<!-- 626&#45;&gt;627 -->
<g id="edge11" class="edge"><title>626&#45;&gt;627</title>
<path fill="none" stroke="black" d="M884.168,-967.597C869.461,-954.69 849.24,-936.946 833.05,-922.738"/>
<polygon fill="black" stroke="black" points="835.293,-920.049 825.468,-916.084 830.676,-925.311 835.293,-920.049"/>
</g>
<!-- 626&#45;&gt;EXIT -->
<g id="edge29" class="edge"><title>626&#45;&gt;EXIT</title>
<path fill="none" stroke="red" d="M944.856,-967.889C971.365,-953.761 1001,-930.846 1001,-899 1001,-899 1001,-899 1001,-105 1001,-57.1804 656.168,-30.3165 526.507,-21.9056"/>
<polygon fill="red" stroke="red" points="526.66,-18.4084 516.457,-21.2628 526.214,-25.3941 526.66,-18.4084"/>
<text text-anchor="middle" x="1019.5" y="-498.3" font-family="Times,serif" font-size="14.00">xalloc,</text>
</g>
<!-- ENTRY -->
<g id="node13" class="node"><title>ENTRY</title>
<polygon fill="none" stroke="black" points="551,-1092 459,-1092 459,-1056 551,-1056 551,-1092"/>
<text text-anchor="middle" x="505" y="-1070.3" font-family="Times,serif" font-size="14.00">ENTRY: skip</text>
</g>
<!-- ENTRY&#45;&gt;634 -->
<g id="edge30" class="edge"><title>ENTRY&#45;&gt;634</title>
<path fill="none" stroke="red" d="M458.741,-1073.7C345.021,-1074.2 61,-1067.38 61,-987 61,-987 61,-987 61,-369 61,-348.867 66.0264,-326.693 70.9087,-309.904"/>
<polygon fill="red" stroke="red" points="74.2949,-310.8 73.8837,-300.213 67.6031,-308.745 74.2949,-310.8"/>
<text text-anchor="middle" x="77" y="-674.3" font-family="Times,serif" font-size="14.00">main,</text>
</g>
<!-- ENTRY&#45;&gt;633 -->
<g id="edge31" class="edge"><title>ENTRY&#45;&gt;633</title>
<path fill="none" stroke="red" d="M458.848,-1070.84C366.552,-1065.25 168,-1046.33 168,-987 168,-987 168,-987 168,-457 168,-436.915 172.762,-414.74 177.387,-397.938"/>
<polygon fill="red" stroke="red" points="180.776,-398.817 180.206,-388.238 174.054,-396.864 180.776,-398.817"/>
<text text-anchor="middle" x="192.5" y="-718.3" font-family="Times,serif" font-size="14.00">finduser,</text>
</g>
<!-- ENTRY&#45;&gt;632 -->
<g id="edge32" class="edge"><title>ENTRY&#45;&gt;632</title>
<path fill="none" stroke="red" d="M458.544,-1071.11C403.452,-1066.08 319,-1048.37 319,-987 319,-987 319,-987 319,-545 319,-524.65 312.915,-502.482 307.005,-485.751"/>
<polygon fill="red" stroke="red" points="310.179,-484.245 303.404,-476.1 303.621,-486.693 310.179,-484.245"/>
<text text-anchor="middle" x="345" y="-762.3" font-family="Times,serif" font-size="14.00">recipient,</text>
</g>
<!-- ENTRY&#45;&gt;630 -->
<g id="edge33" class="edge"><title>ENTRY&#45;&gt;630</title>
<path fill="none" stroke="red" d="M464.844,-1055.93C438.537,-1041.76 409,-1018.77 409,-987 409,-987 409,-987 409,-721 409,-691.155 434.328,-670.247 460.894,-656.526"/>
<polygon fill="red" stroke="red" points="462.449,-659.661 469.916,-652.145 459.392,-653.364 462.449,-659.661"/>
<text text-anchor="middle" x="438" y="-850.3" font-family="Times,serif" font-size="14.00">SpaceSub,</text>
</g>
<!-- ENTRY&#45;&gt;629 -->
<g id="edge34" class="edge"><title>ENTRY&#45;&gt;629</title>
<path fill="none" stroke="red" d="M505,-1055.87C505,-1038.51 505,-1010.89 505,-987 505,-987 505,-987 505,-809 505,-786.431 517.76,-764.273 530.122,-748.102"/>
<polygon fill="red" stroke="red" points="532.926,-750.201 536.481,-740.22 527.478,-745.805 532.926,-750.201"/>
<text text-anchor="middle" x="541.5" y="-894.3" font-family="Times,serif" font-size="14.00">MatchGecos,</text>
</g>
<!-- ENTRY&#45;&gt;628 -->
<g id="edge35" class="edge"><title>ENTRY&#45;&gt;628</title>
<path fill="none" stroke="red" d="M515.498,-1055.81C542.904,-1010.93 616.729,-890.044 649.251,-836.789"/>
<polygon fill="red" stroke="red" points="652.238,-838.612 654.463,-828.254 646.264,-834.964 652.238,-838.612"/>
<text text-anchor="middle" x="645.5" y="-938.3" font-family="Times,serif" font-size="14.00">MaxAliasRecursion,</text>
</g>
<!-- ENTRY&#45;&gt;627 -->
<g id="edge36" class="edge"><title>ENTRY&#45;&gt;627</title>
<path fill="none" stroke="red" d="M551.183,-1062.86C572.764,-1057.15 598.401,-1048.93 620,-1038 682.433,-1006.4 745.716,-953.743 779.991,-923.117"/>
<polygon fill="red" stroke="red" points="782.58,-925.495 787.66,-916.198 777.891,-920.298 782.58,-925.495"/>
<text text-anchor="middle" x="759.5" y="-982.3" font-family="Times,serif" font-size="14.00">buildfname,</text>
</g>
<!-- ENTRY&#45;&gt;626 -->
<g id="edge12" class="edge"><title>ENTRY&#45;&gt;626</title>
<path fill="none" stroke="black" d="M551.123,-1068.76C600.331,-1063.67 680.347,-1053.81 748,-1038 782.152,-1030.02 819.526,-1017.92 849.129,-1007.52"/>
<polygon fill="black" stroke="black" points="850.605,-1010.71 858.855,-1004.06 848.26,-1004.11 850.605,-1010.71"/>
</g>
<!-- ENTRY&#45;&gt;626 -->
<g id="edge37" class="edge"><title>ENTRY&#45;&gt;626</title>
<path fill="none" stroke="red" d="M551.157,-1071.62C608.398,-1068.95 708.505,-1061.09 791,-1038 816.097,-1030.98 842.732,-1019.19 863.836,-1008.71"/>
<polygon fill="red" stroke="red" points="865.476,-1011.81 872.819,-1004.17 862.316,-1005.56 865.476,-1011.81"/>
<text text-anchor="middle" x="851.5" y="-1026.3" font-family="Times,serif" font-size="14.00">xalloc,</text>
</g>
</g>
</svg>
