<?xml version="1.0" encoding="UTF-8" standalone="no"?>
<!DOCTYPE svg PUBLIC "-//W3C//DTD SVG 1.1//EN"
 "http://www.w3.org/Graphics/SVG/1.1/DTD/svg11.dtd">
<!-- Generated by graphviz version 2.36.0 (20140111.2315)
 -->
<!-- Title: callgraph Pages: 1 -->
<svg width="180pt" height="332pt"
 viewBox="0.00 0.00 180.00 332.00" xmlns="http://www.w3.org/2000/svg" xmlns:xlink="http://www.w3.org/1999/xlink">
<g id="graph0" class="graph" transform="scale(1 1) rotate(0) translate(4 328)">
<title>callgraph</title>
<polygon fill="white" stroke="none" points="-4,4 -4,-328 176,-328 176,4 -4,4"/>
<!-- xalloc -->
<g id="node1" class="node"><title>xalloc</title>
<g id="a_node1"><a xlink:href="xalloc.svg" xlink:title="xalloc">
<polygon fill="none" stroke="black" points="54,-108 0,-108 0,-72 54,-72 54,-108"/>
<text text-anchor="middle" x="27" y="-86.3" font-family="Times,serif" font-size="14.00">xalloc</text>
</a>
</g>
</g>
<!-- recipient -->
<g id="node2" class="node"><title>recipient</title>
<g id="a_node2"><a xlink:href="recipient.svg" xlink:title="recipient">
<polygon fill="none" stroke="black" points="135,-180 71,-180 71,-144 135,-144 135,-180"/>
<text text-anchor="middle" x="103" y="-158.3" font-family="Times,serif" font-size="14.00">recipient</text>
</a>
</g>
</g>
<!-- recipient&#45;&gt;xalloc -->
<g id="edge1" class="edge"><title>recipient&#45;&gt;xalloc</title>
<path fill="none" stroke="black" d="M84.2135,-143.697C74.826,-135.05 63.3156,-124.449 53.0865,-115.027"/>
<polygon fill="black" stroke="black" points="55.2971,-112.305 45.5704,-108.104 50.5547,-117.454 55.2971,-112.305"/>
</g>
<!-- finduser -->
<g id="node4" class="node"><title>finduser</title>
<g id="a_node4"><a xlink:href="finduser.svg" xlink:title="finduser">
<polygon fill="none" stroke="black" points="133.25,-108 72.75,-108 72.75,-72 133.25,-72 133.25,-108"/>
<text text-anchor="middle" x="103" y="-86.3" font-family="Times,serif" font-size="14.00">finduser</text>
</a>
</g>
</g>
<!-- recipient&#45;&gt;finduser -->
<g id="edge2" class="edge"><title>recipient&#45;&gt;finduser</title>
<path fill="none" stroke="black" d="M103,-143.697C103,-135.983 103,-126.712 103,-118.112"/>
<polygon fill="black" stroke="black" points="106.5,-118.104 103,-108.104 99.5001,-118.104 106.5,-118.104"/>
</g>
<!-- buildfname -->
<g id="node5" class="node"><title>buildfname</title>
<g id="a_node5"><a xlink:href="buildfname.svg" xlink:title="buildfname">
<polygon fill="none" stroke="black" points="171.25,-36 92.75,-36 92.75,-0 171.25,-0 171.25,-36"/>
<text text-anchor="middle" x="132" y="-14.3" font-family="Times,serif" font-size="14.00">buildfname</text>
</a>
</g>
</g>
<!-- recipient&#45;&gt;buildfname -->
<g id="edge3" class="edge"><title>recipient&#45;&gt;buildfname</title>
<path fill="none" stroke="black" d="M119.89,-143.993C128.293,-134.315 137.582,-121.459 142,-108 148.608,-87.8707 145.349,-63.9558 140.854,-45.9878"/>
<polygon fill="black" stroke="black" points="144.176,-44.8696 138.13,-36.1692 137.431,-46.7409 144.176,-44.8696"/>
</g>
<!-- main -->
<g id="node3" class="node"><title>main</title>
<g id="a_node3"><a xlink:href="main.svg" xlink:title="main">
<polygon fill="none" stroke="black" points="130,-252 76,-252 76,-216 130,-216 130,-252"/>
<text text-anchor="middle" x="103" y="-230.3" font-family="Times,serif" font-size="14.00">main</text>
</a>
</g>
</g>
<!-- main&#45;&gt;recipient -->
<g id="edge4" class="edge"><title>main&#45;&gt;recipient</title>
<path fill="none" stroke="black" d="M103,-215.697C103,-207.983 103,-198.712 103,-190.112"/>
<polygon fill="black" stroke="black" points="106.5,-190.104 103,-180.104 99.5001,-190.104 106.5,-190.104"/>
</g>
<!-- finduser&#45;&gt;buildfname -->
<g id="edge5" class="edge"><title>finduser&#45;&gt;buildfname</title>
<path fill="none" stroke="black" d="M110.169,-71.6966C113.435,-63.8132 117.374,-54.3042 121.002,-45.5464"/>
<polygon fill="black" stroke="black" points="124.32,-46.6825 124.914,-36.1043 117.853,-44.0033 124.32,-46.6825"/>
</g>
<!-- _G_ -->
<g id="node6" class="node"><title>_G_</title>
<g id="a_node6"><a xlink:href="_G_.svg" xlink:title="_G_">
<polygon fill="none" stroke="black" points="130,-324 76,-324 76,-288 130,-288 130,-324"/>
<text text-anchor="middle" x="103" y="-302.3" font-family="Times,serif" font-size="14.00">_G_</text>
</a>
</g>
</g>
<!-- _G_&#45;&gt;main -->
<g id="edge6" class="edge"><title>_G_&#45;&gt;main</title>
<path fill="none" stroke="black" d="M103,-287.697C103,-279.983 103,-270.712 103,-262.112"/>
<polygon fill="black" stroke="black" points="106.5,-262.104 103,-252.104 99.5001,-262.104 106.5,-262.104"/>
</g>
</g>
</svg>
