<?xml version="1.0" encoding="UTF-8" standalone="no"?>
<!DOCTYPE svg PUBLIC "-//W3C//DTD SVG 1.1//EN"
 "http://www.w3.org/Graphics/SVG/1.1/DTD/svg11.dtd">
<!-- Generated by graphviz version 2.36.0 (20140111.2315)
 -->
<!-- Title: main Pages: 1 -->
<svg width="1638pt" height="1352pt"
 viewBox="0.00 0.00 1638.00 1352.00" xmlns="http://www.w3.org/2000/svg" xmlns:xlink="http://www.w3.org/1999/xlink">
<g id="graph0" class="graph" transform="scale(1 1) rotate(0) translate(4 1348)">
<title>main</title>
<polygon fill="white" stroke="none" points="-4,4 -4,-1348 1634,-1348 1634,4 -4,4"/>
<!-- 625 -->
<g id="node1" class="node"><title>625</title>
<polygon fill="none" stroke="black" points="789.25,-198 722.75,-198 722.75,-162 789.25,-162 789.25,-198"/>
<text text-anchor="middle" x="756" y="-176.3" font-family="Times,serif" font-size="14.00">625: skip</text>
</g>
<!-- 516 -->
<g id="node14" class="node"><title>516</title>
<polygon fill="none" stroke="black" points="640.25,-124 553.75,-124 553.75,-88 640.25,-88 640.25,-124"/>
<text text-anchor="middle" x="597" y="-102.3" font-family="Times,serif" font-size="14.00">516: return 0</text>
</g>
<!-- 625&#45;&gt;516 -->
<g id="edge1" class="edge"><title>625&#45;&gt;516</title>
<path fill="none" stroke="black" d="M722.668,-163.906C699.898,-153.595 669.394,-139.782 644.142,-128.347"/>
<polygon fill="black" stroke="black" points="645.302,-125.03 634.748,-124.094 642.414,-131.407 645.302,-125.03"/>
</g>
<!-- 624 -->
<g id="node2" class="node"><title>624</title>
<polygon fill="none" stroke="black" points="706.25,-552 639.75,-552 639.75,-516 706.25,-516 706.25,-552"/>
<text text-anchor="middle" x="673" y="-530.3" font-family="Times,serif" font-size="14.00">624: skip</text>
</g>
<!-- 615 -->
<g id="node8" class="node"><title>615</title>
<polygon fill="none" stroke="black" points="797,-464 615,-464 615,-428 797,-428 797,-464"/>
<text text-anchor="middle" x="706" y="-442.3" font-family="Times,serif" font-size="14.00">615: set(ret_address,tmp___0)</text>
</g>
<!-- 624&#45;&gt;615 -->
<g id="edge2" class="edge"><title>624&#45;&gt;615</title>
<path fill="none" stroke="black" d="M676.709,-515.677C679.112,-505.653 682.612,-492.903 687,-482 688.175,-479.08 689.534,-476.091 690.973,-473.151"/>
<polygon fill="black" stroke="black" points="694.191,-474.549 695.719,-464.065 687.986,-471.308 694.191,-474.549"/>
</g>
<!-- 624&#45;&gt;615 -->
<g id="edge16" class="edge"><title>624&#45;&gt;615</title>
<path fill="none" stroke="red" d="M679.678,-515.597C684.315,-503.511 690.58,-487.184 695.835,-473.491"/>
<polygon fill="red" stroke="red" points="699.13,-474.674 699.445,-464.084 692.594,-472.166 699.13,-474.674"/>
<text text-anchor="middle" x="740" y="-486.3" font-family="Times,serif" font-size="14.00">(main,tmp___0),</text>
</g>
<!-- 624&#45;&gt;516 -->
<g id="edge17" class="edge"><title>624&#45;&gt;516</title>
<path fill="none" stroke="red" d="M652.666,-515.961C638.13,-502.93 618.93,-483.874 606,-464 568.373,-406.166 561.129,-387.736 548,-320 534.86,-252.204 565.167,-173.152 583.788,-133.113"/>
<polygon fill="red" stroke="red" points="586.974,-134.564 588.125,-124.032 580.657,-131.547 586.974,-134.564"/>
<text text-anchor="middle" x="595" y="-308.3" font-family="Times,serif" font-size="14.00">(main,tmp___0),</text>
</g>
<!-- EXIT -->
<g id="node15" class="node"><title>EXIT</title>
<polygon fill="none" stroke="black" points="1292.25,-36 1215.75,-36 1215.75,-0 1292.25,-0 1292.25,-36"/>
<text text-anchor="middle" x="1254" y="-14.3" font-family="Times,serif" font-size="14.00">EXIT: skip</text>
</g>
<!-- 624&#45;&gt;EXIT -->
<g id="edge18" class="edge"><title>624&#45;&gt;EXIT</title>
<path fill="none" stroke="red" d="M639.521,-523.952C509.529,-487.966 48.5343,-351.999 112,-250 216.168,-82.5871 319.067,-103.222 510,-54 642.084,-19.9491 1061.75,-18.251 1205.3,-18.7071"/>
<polygon fill="red" stroke="red" points="1205.54,-22.2079 1215.55,-18.745 1205.56,-15.208 1205.54,-22.2079"/>
<text text-anchor="middle" x="305.5" y="-264.3" font-family="Times,serif" font-size="14.00">main&#45;6170.q_flags,(recipient,sendq),(recipient,aliaslevel),(recipient,a),</text>
</g>
<!-- 623 -->
<g id="node3" class="node"><title>623</title>
<polygon fill="none" stroke="black" points="1185.25,-376 868.75,-376 868.75,-338 1185.25,-338 1185.25,-376"/>
<text text-anchor="middle" x="1027" y="-360.8" font-family="Times,serif" font-size="14.00">623: salloc(__cil_tmp10, &quot;Real name of user %s = %s</text>
<text text-anchor="middle" x="1027" y="-345.8" font-family="Times,serif" font-size="14.00">&quot;)</text>
</g>
<!-- 621 -->
<g id="node4" class="node"><title>621</title>
<polygon fill="grey" stroke="grey" points="1162.5,-286 721.5,-286 721.5,-250 1162.5,-250 1162.5,-286"/>
<text text-anchor="middle" x="942" y="-264.3" font-family="Times,serif" font-size="14.00">621: call(@printf((char const &#160;&#160;*/* __restrict &#160;*/)__cil_tmp10, a, ret_address))</text>
</g>
<!-- 623&#45;&gt;621 -->
<g id="edge3" class="edge"><title>623&#45;&gt;621</title>
<path fill="none" stroke="black" d="M1009.39,-337.974C996.833,-325.123 979.804,-307.694 966.006,-293.571"/>
<polygon fill="black" stroke="black" points="968.214,-290.822 958.722,-286.115 963.207,-295.714 968.214,-290.822"/>
</g>
<!-- 623&#45;&gt;621 -->
<g id="edge19" class="edge"><title>623&#45;&gt;621</title>
<path fill="none" stroke="red" d="M1017.11,-337.945C1010.78,-327.346 1001.91,-314.094 992,-304 987.862,-299.786 983.157,-295.748 978.326,-292.009"/>
<polygon fill="red" stroke="red" points="980.291,-289.11 970.157,-286.021 976.153,-294.756 980.291,-289.11"/>
<text text-anchor="middle" x="1063" y="-308.3" font-family="Times,serif" font-size="14.00">(main,__cil_tmp10),</text>
</g>
<!-- 623&#45;&gt;516 -->
<g id="edge20" class="edge"><title>623&#45;&gt;516</title>
<path fill="none" stroke="red" d="M1088.41,-337.933C1140.05,-319.57 1201.01,-288.403 1171,-250 1169.97,-248.687 792.544,-155.317 650.348,-120.178"/>
<polygon fill="red" stroke="red" points="651.072,-116.752 640.524,-117.75 649.393,-123.547 651.072,-116.752"/>
<text text-anchor="middle" x="1155" y="-220.3" font-family="Times,serif" font-size="14.00">(main,__cil_tmp10),</text>
</g>
<!-- 623&#45;&gt;EXIT -->
<g id="edge21" class="edge"><title>623&#45;&gt;EXIT</title>
<path fill="none" stroke="red" d="M1120.41,-337.898C1133.91,-333.215 1147.2,-327.346 1159,-320 1176.11,-309.346 1177.86,-302.792 1189,-286 1203.73,-263.805 1206.89,-257.373 1215,-232 1224.61,-201.932 1220.66,-192.922 1227,-162 1235.45,-120.815 1242.04,-111.462 1249,-70 1250.3,-62.2789 1251.29,-53.8397 1252.04,-46.0884"/>
<polygon fill="red" stroke="red" points="1255.53,-46.3433 1252.91,-36.077 1248.56,-45.735 1255.53,-46.3433"/>
<text text-anchor="middle" x="1259" y="-176.3" font-family="Times,serif" font-size="14.00">main&#45;6230,</text>
</g>
<!-- 621&#45;&gt;625 -->
<g id="edge4" class="edge"><title>621&#45;&gt;625</title>
<path fill="none" stroke="black" d="M904.807,-249.803C874.123,-235.616 830.578,-215.482 798.517,-200.659"/>
<polygon fill="black" stroke="black" points="799.928,-197.455 789.382,-196.435 796.99,-203.808 799.928,-197.455"/>
</g>
<!-- 620 -->
<g id="node5" class="node"><title>620</title>
<polygon fill="none" stroke="black" points="1037,-816 853,-816 853,-780 1037,-780 1037,-816"/>
<text text-anchor="middle" x="945" y="-794.3" font-family="Times,serif" font-size="14.00">620: salloc(__cil_tmp9, &quot;rpc&quot;)</text>
</g>
<!-- 618 -->
<g id="node6" class="node"><title>618</title>
<polygon fill="none" stroke="black" points="1015.5,-728 786.5,-728 786.5,-692 1015.5,-692 1015.5,-728"/>
<text text-anchor="middle" x="901" y="-706.3" font-family="Times,serif" font-size="14.00">618: set(*a.q_user,(char *)__cil_tmp9)</text>
</g>
<!-- 620&#45;&gt;618 -->
<g id="edge5" class="edge"><title>620&#45;&gt;618</title>
<path fill="none" stroke="black" d="M990.183,-779.884C1006.46,-771.051 1018.69,-759.329 1009,-746 1005.63,-741.367 1001.64,-737.335 997.198,-733.827"/>
<polygon fill="black" stroke="black" points="999.005,-730.822 988.775,-728.062 995.051,-736.598 999.005,-730.822"/>
</g>
<!-- 620&#45;&gt;618 -->
<g id="edge22" class="edge"><title>620&#45;&gt;618</title>
<path fill="none" stroke="red" d="M913.114,-779.671C907.022,-774.802 901.47,-768.91 898,-762 894.402,-754.835 893.719,-746.372 894.341,-738.42"/>
<polygon fill="red" stroke="red" points="897.821,-738.809 895.775,-728.414 890.892,-737.816 897.821,-738.809"/>
<text text-anchor="middle" x="951.5" y="-750.3" font-family="Times,serif" font-size="14.00">(main,__cil_tmp9),</text>
</g>
<!-- 620&#45;&gt;516 -->
<g id="edge23" class="edge"><title>620&#45;&gt;516</title>
<path fill="none" stroke="red" d="M1000.6,-779.949C1009.63,-775.257 1018.23,-769.364 1025,-762 1131.19,-646.556 1054.2,-559.955 1139,-428 1157.19,-399.7 1175.94,-404.381 1194,-376 1246.97,-292.766 1319.79,-234.619 1253,-162 1212.53,-117.998 800.02,-109.183 650.638,-107.43"/>
<polygon fill="red" stroke="red" points="650.384,-103.928 640.346,-107.316 650.306,-110.927 650.384,-103.928"/>
<text text-anchor="middle" x="1192.5" y="-442.3" font-family="Times,serif" font-size="14.00">(main,__cil_tmp9),</text>
</g>
<!-- 620&#45;&gt;EXIT -->
<g id="edge24" class="edge"><title>620&#45;&gt;EXIT</title>
<path fill="none" stroke="red" d="M1010.12,-779.979C1022.59,-775.214 1035.13,-769.287 1046,-762 1062.74,-750.776 1062.93,-743.337 1076,-728 1138.37,-654.832 1280.25,-459.095 1351,-394 1361.34,-384.484 1369.16,-387.663 1377,-376 1393,-352.197 1391,-341.683 1391,-313 1391,-313 1391,-313 1391,-105 1391,-61.8953 1341.75,-39.5634 1302.31,-28.5903"/>
<polygon fill="red" stroke="red" points="1303.09,-25.1766 1292.53,-26.0396 1301.32,-31.95 1303.09,-25.1766"/>
<text text-anchor="middle" x="1383" y="-398.3" font-family="Times,serif" font-size="14.00">main&#45;6200,</text>
</g>
<!-- 614 -->
<g id="node9" class="node"><title>614</title>
<polygon fill="grey" stroke="grey" points="864.25,-640 547.75,-640 547.75,-604 864.25,-604 864.25,-640"/>
<text text-anchor="middle" x="706" y="-618.3" font-family="Times,serif" font-size="14.00">614: tmp___0:= call(@recipient, (a, sendq, aliaslevel))</text>
</g>
<!-- 618&#45;&gt;614 -->
<g id="edge6" class="edge"><title>618&#45;&gt;614</title>
<path fill="none" stroke="black" d="M900.381,-691.946C899.042,-680.723 895.419,-666.573 886,-658 879.322,-651.922 866.766,-646.819 851.263,-642.558"/>
<polygon fill="black" stroke="black" points="851.811,-639.086 841.257,-640.012 850.085,-645.87 851.811,-639.086"/>
</g>
<!-- 618&#45;&gt;614 -->
<g id="edge25" class="edge"><title>618&#45;&gt;614</title>
<path fill="none" stroke="red" d="M824.043,-691.938C808.691,-687.158 792.996,-681.234 779,-674 768.888,-668.773 768.203,-664.699 759,-658 753.429,-653.945 747.421,-649.785 741.52,-645.812"/>
<polygon fill="red" stroke="red" points="743.28,-642.779 733.014,-640.159 739.405,-648.609 743.28,-642.779"/>
<text text-anchor="middle" x="830.5" y="-662.3" font-family="Times,serif" font-size="14.00">main&#45;6170.q_user,</text>
</g>
<!-- 618&#45;&gt;EXIT -->
<g id="edge26" class="edge"><title>618&#45;&gt;EXIT</title>
<path fill="none" stroke="red" d="M954.141,-691.918C987.004,-680.041 1029.21,-662.342 1063,-640 1157.12,-577.755 1190.74,-562.386 1246,-464 1274.09,-413.984 1260.19,-393.678 1274,-338 1286.54,-287.455 1305,-277.078 1305,-225 1305,-225 1305,-225 1305,-105 1305,-82.0881 1291.44,-59.9407 1278.31,-43.8602"/>
<polygon fill="red" stroke="red" points="1280.73,-41.3158 1271.55,-36.0323 1275.44,-45.8895 1280.73,-41.3158"/>
<text text-anchor="middle" x="1325.5" y="-353.3" font-family="Times,serif" font-size="14.00">main&#45;6170.q_user,</text>
</g>
<!-- 617 -->
<g id="node7" class="node"><title>617</title>
<polygon fill="none" stroke="black" points="972.25,-1080 733.75,-1080 733.75,-1044 972.25,-1044 972.25,-1080"/>
<text text-anchor="middle" x="853" y="-1058.3" font-family="Times,serif" font-size="14.00">617: alloc(tmp,[SizeOf(struct address )])</text>
</g>
<!-- 611 -->
<g id="node11" class="node"><title>611</title>
<polygon fill="none" stroke="black" points="963.25,-992 782.75,-992 782.75,-956 963.25,-956 963.25,-992"/>
<text text-anchor="middle" x="873" y="-970.3" font-family="Times,serif" font-size="14.00">611: set(a,(ADDRESS *)tmp)</text>
</g>
<!-- 617&#45;&gt;611 -->
<g id="edge7" class="edge"><title>617&#45;&gt;611</title>
<path fill="none" stroke="black" d="M877.708,-1043.81C883.086,-1038.75 888.047,-1032.74 891,-1026 894.431,-1018.17 893.149,-1009.47 890.07,-1001.5"/>
<polygon fill="black" stroke="black" points="893.109,-999.739 885.62,-992.245 886.8,-1002.77 893.109,-999.739"/>
</g>
<!-- 617&#45;&gt;611 -->
<g id="edge27" class="edge"><title>617&#45;&gt;611</title>
<path fill="none" stroke="red" d="M831.243,-1043.96C821.6,-1034.24 813.704,-1021.7 820,-1010 822.295,-1005.73 825.364,-1001.9 828.873,-998.478"/>
<polygon fill="red" stroke="red" points="831.165,-1001.12 836.587,-992.021 826.672,-995.756 831.165,-1001.12"/>
<text text-anchor="middle" x="853.5" y="-1014.3" font-family="Times,serif" font-size="14.00">(main,tmp),</text>
</g>
<!-- 617&#45;&gt;516 -->
<g id="edge28" class="edge"><title>617&#45;&gt;516</title>
<path fill="none" stroke="red" d="M972.476,-1054.61C1059.16,-1048.9 1163.92,-1039.37 1180,-1026 1342.6,-890.763 1229.38,-762.937 1316,-570 1359.73,-472.594 1429,-464.771 1429,-358 1429,-358 1429,-358 1429,-223 1429,-150.62 1345.86,-187.184 1278,-162 1252.04,-152.366 1246.18,-147.27 1219,-142 1110.84,-121.028 780.892,-111.269 650.671,-108.159"/>
<polygon fill="red" stroke="red" points="650.618,-104.656 640.539,-107.92 650.454,-111.654 650.618,-104.656"/>
<text text-anchor="middle" x="1349.5" y="-574.3" font-family="Times,serif" font-size="14.00">(main,tmp),</text>
</g>
<!-- 615&#45;&gt;623 -->
<g id="edge8" class="edge"><title>615&#45;&gt;623</title>
<path fill="none" stroke="black" d="M769.036,-427.915C821.14,-413.794 895.298,-393.695 950.741,-378.668"/>
<polygon fill="black" stroke="black" points="951.78,-382.013 960.516,-376.019 949.949,-375.257 951.78,-382.013"/>
</g>
<!-- 615&#45;&gt;621 -->
<g id="edge29" class="edge"><title>615&#45;&gt;621</title>
<path fill="none" stroke="red" d="M703.108,-427.995C700.197,-404.866 698.758,-363.464 720,-338 739.047,-315.167 765.517,-299.762 793.56,-289.4"/>
<polygon fill="red" stroke="red" points="794.826,-292.665 803.122,-286.076 792.527,-286.053 794.826,-292.665"/>
<text text-anchor="middle" x="773" y="-353.3" font-family="Times,serif" font-size="14.00">(main,ret_address),</text>
</g>
<!-- 615&#45;&gt;516 -->
<g id="edge30" class="edge"><title>615&#45;&gt;516</title>
<path fill="none" stroke="red" d="M700.495,-427.954C689.463,-394.64 664.152,-322.528 646,-304 632.357,-290.074 616.993,-302.1 606,-286 574.86,-240.393 582.572,-171.988 590.232,-134.317"/>
<polygon fill="red" stroke="red" points="593.747,-134.628 592.462,-124.111 586.908,-133.134 593.747,-134.628"/>
<text text-anchor="middle" x="659" y="-264.3" font-family="Times,serif" font-size="14.00">(main,ret_address),</text>
</g>
<!-- 614&#45;&gt;624 -->
<g id="edge9" class="edge"><title>614&#45;&gt;624</title>
<path fill="none" stroke="black" d="M695.719,-603.935C692.633,-598.35 689.427,-592.029 687,-586 683.949,-578.419 681.327,-569.945 679.205,-562.116"/>
<polygon fill="black" stroke="black" points="682.571,-561.149 676.709,-552.323 675.788,-562.878 682.571,-561.149"/>
</g>
<!-- 614&#45;&gt;624 -->
<g id="edge31" class="edge"><title>614&#45;&gt;624</title>
<path fill="none" stroke="red" d="M699.322,-603.597C694.685,-591.511 688.42,-575.184 683.165,-561.491"/>
<polygon fill="red" stroke="red" points="686.406,-560.166 679.555,-552.084 679.87,-562.674 686.406,-560.166"/>
<text text-anchor="middle" x="833" y="-574.3" font-family="Times,serif" font-size="14.00">(recipient,sendq),(recipient,aliaslevel),(recipient,a),</text>
</g>
<!-- 612 -->
<g id="node10" class="node"><title>612</title>
<polygon fill="none" stroke="black" points="1031.25,-904 846.75,-904 846.75,-868 1031.25,-868 1031.25,-904"/>
<text text-anchor="middle" x="939" y="-882.3" font-family="Times,serif" font-size="14.00">612: set(*a.q_flags,(u_long )0)</text>
</g>
<!-- 612&#45;&gt;620 -->
<g id="edge10" class="edge"><title>612&#45;&gt;620</title>
<path fill="none" stroke="black" d="M940.214,-867.597C941.041,-855.746 942.152,-839.817 943.096,-826.292"/>
<polygon fill="black" stroke="black" points="946.604,-826.303 943.808,-816.084 939.621,-825.816 946.604,-826.303"/>
</g>
<!-- 612&#45;&gt;614 -->
<g id="edge32" class="edge"><title>612&#45;&gt;614</title>
<path fill="none" stroke="red" d="M916.872,-867.917C903.685,-857.859 886.54,-844.995 871,-834 859.227,-825.67 855.39,-824.847 844,-816 815.667,-793.992 806.41,-790.016 784,-762 768.714,-742.89 737.317,-683.835 719.368,-649.153"/>
<polygon fill="red" stroke="red" points="722.38,-647.356 714.687,-640.071 716.158,-650.564 722.38,-647.356"/>
<text text-anchor="middle" x="837.5" y="-750.3" font-family="Times,serif" font-size="14.00">main&#45;6170.q_flags,</text>
</g>
<!-- 611&#45;&gt;621 -->
<g id="edge33" class="edge"><title>611&#45;&gt;621</title>
<path fill="none" stroke="red" d="M962.619,-955.883C991.898,-945.727 1021.59,-929.594 1040,-904 1072.22,-859.207 1052.74,-834.762 1046,-780 1041.07,-739.987 1036.16,-730.438 1024,-692 1006.48,-636.599 1002.64,-622.141 977,-570 932.46,-479.441 886.232,-473.176 859,-376 854.443,-359.738 851.827,-353.29 859,-338 867.946,-318.93 885.037,-303.304 901.397,-291.774"/>
<polygon fill="red" stroke="red" points="903.477,-294.594 909.839,-286.121 899.582,-288.777 903.477,-294.594"/>
<text text-anchor="middle" x="1033.5" y="-618.3" font-family="Times,serif" font-size="14.00">(main,a),</text>
</g>
<!-- 611&#45;&gt;618 -->
<g id="edge34" class="edge"><title>611&#45;&gt;618</title>
<path fill="none" stroke="red" d="M861.018,-955.786C852.445,-942.367 841.633,-922.897 837,-904 830.347,-876.867 838.289,-794.097 844,-780 847.95,-770.251 863.666,-751.512 877.598,-736.021"/>
<polygon fill="red" stroke="red" points="880.502,-738.03 884.649,-728.281 875.327,-733.316 880.502,-738.03"/>
<text text-anchor="middle" x="862.5" y="-838.3" font-family="Times,serif" font-size="14.00">(main,a),</text>
</g>
<!-- 611&#45;&gt;614 -->
<g id="edge35" class="edge"><title>611&#45;&gt;614</title>
<path fill="none" stroke="red" d="M853.793,-955.809C825.138,-928.98 771.711,-874.165 745,-816 719.616,-760.724 710.678,-689.048 707.587,-650.475"/>
<polygon fill="red" stroke="red" points="711.046,-649.788 706.832,-640.067 704.064,-650.294 711.046,-649.788"/>
<text text-anchor="middle" x="770.5" y="-794.3" font-family="Times,serif" font-size="14.00">(main,a),</text>
</g>
<!-- 611&#45;&gt;612 -->
<g id="edge11" class="edge"><title>611&#45;&gt;612</title>
<path fill="none" stroke="black" d="M906.005,-955.954C913.11,-950.987 919.983,-944.981 925,-938 929.973,-931.08 933.181,-922.474 935.249,-914.314"/>
<polygon fill="black" stroke="black" points="938.706,-914.88 937.306,-904.378 931.851,-913.46 938.706,-914.88"/>
</g>
<!-- 611&#45;&gt;612 -->
<g id="edge36" class="edge"><title>611&#45;&gt;612</title>
<path fill="none" stroke="red" d="M867.258,-955.717C864.863,-945.224 863.874,-931.977 870,-922 872.741,-917.536 876.249,-913.62 880.225,-910.188"/>
<polygon fill="red" stroke="red" points="882.409,-912.926 888.372,-904.169 878.249,-907.296 882.409,-912.926"/>
<text text-anchor="middle" x="895.5" y="-926.3" font-family="Times,serif" font-size="14.00">(main,a),</text>
</g>
<!-- 611&#45;&gt;516 -->
<g id="edge37" class="edge"><title>611&#45;&gt;516</title>
<path fill="none" stroke="red" d="M843.898,-955.867C823.084,-942.932 794.98,-924.035 773,-904 646.804,-788.973 511,-793.753 511,-623 511,-623 511,-623 511,-489 511,-410.773 513,-391.227 513,-313 513,-313 513,-313 513,-179 513,-157.542 528.997,-141.1 547.03,-129.383"/>
<polygon fill="red" stroke="red" points="549.211,-132.157 555.984,-124.01 545.609,-126.154 549.211,-132.157"/>
<text text-anchor="middle" x="536.5" y="-530.3" font-family="Times,serif" font-size="14.00">(main,a),</text>
</g>
<!-- 609 -->
<g id="node12" class="node"><title>609</title>
<polygon fill="none" stroke="black" points="692,-1168 562,-1168 562,-1132 692,-1132 692,-1168"/>
<text text-anchor="middle" x="627" y="-1146.3" font-family="Times,serif" font-size="14.00">609: set(aliaslevel,0)</text>
</g>
<!-- 609&#45;&gt;617 -->
<g id="edge12" class="edge"><title>609&#45;&gt;617</title>
<path fill="none" stroke="black" d="M648.374,-1131.83C663.2,-1120.71 683.835,-1106.71 704,-1098 717.807,-1092.03 732.792,-1087 747.759,-1082.77"/>
<polygon fill="black" stroke="black" points="748.846,-1086.1 757.58,-1080.1 747.013,-1079.34 748.846,-1086.1"/>
</g>
<!-- 609&#45;&gt;614 -->
<g id="edge38" class="edge"><title>609&#45;&gt;614</title>
<path fill="none" stroke="red" d="M625.562,-1131.76C621.807,-1085.22 612,-953.101 612,-843 612,-843 612,-843 612,-709 612,-681.051 634.901,-659.741 658.095,-645.325"/>
<polygon fill="red" stroke="red" points="660.092,-648.211 666.952,-640.138 656.554,-642.171 660.092,-648.211"/>
<text text-anchor="middle" x="661" y="-882.3" font-family="Times,serif" font-size="14.00">(main,aliaslevel),</text>
</g>
<!-- 609&#45;&gt;516 -->
<g id="edge39" class="edge"><title>609&#45;&gt;516</title>
<path fill="none" stroke="red" d="M614.426,-1131.92C538.66,-1028.54 144.802,-484.312 103,-286 99.6999,-270.344 93.3871,-262.79 103,-250 156.504,-178.812 426.572,-131.739 543.217,-114.424"/>
<polygon fill="red" stroke="red" points="543.963,-117.852 553.349,-112.937 542.947,-110.926 543.963,-117.852"/>
<text text-anchor="middle" x="328" y="-618.3" font-family="Times,serif" font-size="14.00">(main,aliaslevel),</text>
</g>
<!-- 608 -->
<g id="node13" class="node"><title>608</title>
<polygon fill="none" stroke="black" points="651.25,-1256 400.75,-1256 400.75,-1220 651.25,-1220 651.25,-1256"/>
<text text-anchor="middle" x="526" y="-1234.3" font-family="Times,serif" font-size="14.00">608: set(sendq,(ADDRESS **)((void *)0))</text>
</g>
<!-- 608&#45;&gt;614 -->
<g id="edge40" class="edge"><title>608&#45;&gt;614</title>
<path fill="none" stroke="red" d="M526.767,-1219.75C528.769,-1173.18 534,-1041.01 534,-931 534,-931 534,-931 536,-709 536,-676.477 561.08,-656.251 591.973,-643.673"/>
<polygon fill="red" stroke="red" points="593.596,-646.802 601.726,-640.01 591.134,-640.249 593.596,-646.802"/>
<text text-anchor="middle" x="572" y="-926.3" font-family="Times,serif" font-size="14.00">(main,sendq),</text>
</g>
<!-- 608&#45;&gt;609 -->
<g id="edge13" class="edge"><title>608&#45;&gt;609</title>
<path fill="none" stroke="black" d="M546.439,-1219.6C561.597,-1206.69 582.436,-1188.95 599.122,-1174.74"/>
<polygon fill="black" stroke="black" points="601.591,-1177.23 606.936,-1168.08 597.053,-1171.9 601.591,-1177.23"/>
</g>
<!-- 608&#45;&gt;516 -->
<g id="edge41" class="edge"><title>608&#45;&gt;516</title>
<path fill="none" stroke="red" d="M400.678,-1228.73C245.098,-1216.73 0,-1191.42 0,-1151 0,-1151 0,-1151 0,-223 0,-112.802 396.923,-105.189 543.474,-106.134"/>
<polygon fill="red" stroke="red" points="543.556,-109.634 553.584,-106.215 543.613,-102.634 543.556,-109.634"/>
<text text-anchor="middle" x="38" y="-662.3" font-family="Times,serif" font-size="14.00">(main,sendq),</text>
</g>
<!-- 516&#45;&gt;EXIT -->
<g id="edge14" class="edge"><title>516&#45;&gt;EXIT</title>
<path fill="none" stroke="black" d="M640.284,-105.068C774.728,-104.943 1179.05,-101.889 1228,-70 1236.65,-64.3635 1242.56,-54.9007 1246.54,-45.6462"/>
<polygon fill="black" stroke="black" points="1249.83,-46.84 1250,-36.2466 1243.26,-44.4165 1249.83,-46.84"/>
</g>
<!-- 516&#45;&gt;EXIT -->
<g id="edge42" class="edge"><title>516&#45;&gt;EXIT</title>
<path fill="none" stroke="red" d="M553.602,-93.3602C527.513,-84.3402 502.171,-70.5994 518,-54 541.742,-29.1022 1045.44,-21.3328 1205.58,-19.4872"/>
<polygon fill="red" stroke="red" points="1205.66,-22.9866 1215.62,-19.3741 1205.58,-15.9871 1205.66,-22.9866"/>
<text text-anchor="middle" x="871" y="-58.3" font-family="Times,serif" font-size="14.00">(main,tmp___0),(main,tmp),(main,sendq),(main,ret_address),(main,aliaslevel),(main,a),(main,__cil_tmp9),(main,__cil_tmp10),</text>
</g>
<!-- ENTRY -->
<g id="node16" class="node"><title>ENTRY</title>
<polygon fill="none" stroke="black" points="899,-1344 807,-1344 807,-1308 899,-1308 899,-1344"/>
<text text-anchor="middle" x="853" y="-1322.3" font-family="Times,serif" font-size="14.00">ENTRY: skip</text>
</g>
<!-- ENTRY&#45;&gt;623 -->
<g id="edge43" class="edge"><title>ENTRY&#45;&gt;623</title>
<path fill="none" stroke="red" d="M899.162,-1323.24C1039.89,-1317.29 1454,-1295 1454,-1239 1454,-1239 1454,-1239 1454,-929 1454,-740.244 1454.35,-676.497 1355,-516 1307.8,-439.748 1212.17,-399.486 1136.29,-378.742"/>
<polygon fill="red" stroke="red" points="1136.76,-375.245 1126.2,-376.064 1134.96,-382.011 1136.76,-375.245"/>
<text text-anchor="middle" x="1541.5" y="-838.3" font-family="Times,serif" font-size="14.00">main&#45;6230,(main,__cil_tmp10),</text>
</g>
<!-- ENTRY&#45;&gt;620 -->
<g id="edge44" class="edge"><title>ENTRY&#45;&gt;620</title>
<path fill="none" stroke="red" d="M899.245,-1322.73C959.113,-1319.03 1059.4,-1309.98 1090,-1290 1112.4,-1275.37 1122,-1265.76 1122,-1239 1122,-1239 1122,-1239 1122,-1105 1122,-1077.18 1116.52,-1063.86 1136,-1044 1159.1,-1020.45 1187.7,-1052 1208,-1026 1212.38,-1020.39 1210.99,-1016.45 1208,-1010 1164.63,-916.565 1056.62,-851.886 993.327,-820.577"/>
<polygon fill="red" stroke="red" points="994.472,-817.242 983.948,-816.02 991.413,-823.538 994.472,-817.242"/>
<text text-anchor="middle" x="1221" y="-1058.3" font-family="Times,serif" font-size="14.00">main&#45;6200,(main,__cil_tmp9),</text>
</g>
<!-- ENTRY&#45;&gt;618 -->
<g id="edge45" class="edge"><title>ENTRY&#45;&gt;618</title>
<path fill="none" stroke="red" d="M899.206,-1316.85C964.524,-1303.99 1076,-1276.55 1076,-1239 1076,-1239 1076,-1239 1076,-1061 1076,-960.102 1106.33,-931.126 1079,-834 1066.57,-789.828 1061.63,-773.635 1025,-746 1017.72,-740.509 1009.62,-735.88 1001.14,-731.976"/>
<polygon fill="red" stroke="red" points="1002.38,-728.701 991.804,-728.02 999.644,-735.146 1002.38,-728.701"/>
<text text-anchor="middle" x="1130.5" y="-1014.3" font-family="Times,serif" font-size="14.00">main&#45;6170.q_user,</text>
</g>
<!-- ENTRY&#45;&gt;617 -->
<g id="edge46" class="edge"><title>ENTRY&#45;&gt;617</title>
<path fill="none" stroke="red" d="M853,-1307.81C853,-1263.4 853,-1144.53 853,-1090.46"/>
<polygon fill="red" stroke="red" points="856.5,-1090.25 853,-1080.25 849.5,-1090.25 856.5,-1090.25"/>
<text text-anchor="middle" x="886.5" y="-1190.3" font-family="Times,serif" font-size="14.00">(main,tmp),</text>
</g>
<!-- ENTRY&#45;&gt;615 -->
<g id="edge47" class="edge"><title>ENTRY&#45;&gt;615</title>
<path fill="none" stroke="red" d="M899.056,-1321.33C1016.87,-1311.34 1320,-1281.51 1320,-1239 1320,-1239 1320,-1239 1320,-621 1320,-597.495 1323.16,-586.066 1306,-570 1235.01,-503.528 959.13,-469.25 807.41,-455.097"/>
<polygon fill="red" stroke="red" points="807.431,-451.584 797.152,-454.153 806.789,-458.554 807.431,-451.584"/>
<text text-anchor="middle" x="1373" y="-882.3" font-family="Times,serif" font-size="14.00">(main,ret_address),</text>
</g>
<!-- ENTRY&#45;&gt;614 -->
<g id="edge48" class="edge"><title>ENTRY&#45;&gt;614</title>
<path fill="none" stroke="red" d="M806.714,-1324.96C635.237,-1324.22 46,-1316.05 46,-1239 46,-1239 46,-1239 46,-1017 46,-774.013 379.894,-677.358 572.706,-641.801"/>
<polygon fill="red" stroke="red" points="573.418,-645.229 582.633,-640.001 572.169,-638.341 573.418,-645.229"/>
<text text-anchor="middle" x="265" y="-970.3" font-family="Times,serif" font-size="14.00">(recipient,sendq),(recipient,aliaslevel),(recipient,a),(main,tmp___0),recipient,</text>
</g>
<!-- ENTRY&#45;&gt;612 -->
<g id="edge49" class="edge"><title>ENTRY&#45;&gt;612</title>
<path fill="none" stroke="red" d="M844.065,-1307.89C833.199,-1287.1 814.29,-1250.96 798,-1220 758.487,-1144.91 702.675,-1126.13 724,-1044 735.25,-1000.67 739.592,-985.797 773,-956 797.905,-933.787 830.966,-918.092 861.024,-907.346"/>
<polygon fill="red" stroke="red" points="862.347,-910.592 870.664,-904.028 860.069,-903.973 862.347,-910.592"/>
<text text-anchor="middle" x="780.5" y="-1102.3" font-family="Times,serif" font-size="14.00">main&#45;6170.q_flags,</text>
</g>
<!-- ENTRY&#45;&gt;611 -->
<g id="edge50" class="edge"><title>ENTRY&#45;&gt;611</title>
<path fill="none" stroke="red" d="M866.132,-1307.84C894.434,-1269.56 960.295,-1173.23 981,-1080 984.469,-1064.38 988.687,-1058.03 981,-1044 969.547,-1023.09 948.762,-1007.6 928.464,-996.65"/>
<polygon fill="red" stroke="red" points="930.014,-993.512 919.516,-992.085 926.833,-999.747 930.014,-993.512"/>
<text text-anchor="middle" x="990.5" y="-1146.3" font-family="Times,serif" font-size="14.00">(main,a),</text>
</g>
<!-- ENTRY&#45;&gt;609 -->
<g id="edge51" class="edge"><title>ENTRY&#45;&gt;609</title>
<path fill="none" stroke="red" d="M806.92,-1311.03C775.071,-1299.77 733.021,-1281.58 702,-1256 675.265,-1233.95 653.455,-1200.21 640.38,-1176.96"/>
<polygon fill="red" stroke="red" points="643.352,-1175.1 635.483,-1168 637.21,-1178.46 643.352,-1175.1"/>
<text text-anchor="middle" x="750" y="-1234.3" font-family="Times,serif" font-size="14.00">(main,aliaslevel),</text>
</g>
<!-- ENTRY&#45;&gt;608 -->
<g id="edge15" class="edge"><title>ENTRY&#45;&gt;608</title>
<path fill="none" stroke="black" d="M806.984,-1317.81C770.59,-1311.69 718.647,-1302 674,-1290 642.304,-1281.48 607.578,-1269.65 579.734,-1259.53"/>
<polygon fill="black" stroke="black" points="580.782,-1256.19 570.188,-1256.03 578.372,-1262.76 580.782,-1256.19"/>
</g>
<!-- ENTRY&#45;&gt;608 -->
<g id="edge52" class="edge"><title>ENTRY&#45;&gt;608</title>
<path fill="none" stroke="red" d="M806.878,-1325.5C731.102,-1325.4 584.691,-1321.04 545,-1290 537.537,-1284.16 533.006,-1275.08 530.254,-1266.18"/>
<polygon fill="red" stroke="red" points="533.634,-1265.27 527.842,-1256.4 526.838,-1266.95 533.634,-1265.27"/>
<text text-anchor="middle" x="583" y="-1278.3" font-family="Times,serif" font-size="14.00">(main,sendq),</text>
</g>
</g>
</svg>
