<?xml version="1.0" encoding="UTF-8" standalone="no"?>
<!DOCTYPE svg PUBLIC "-//W3C//DTD SVG 1.1//EN"
 "http://www.w3.org/Graphics/SVG/1.1/DTD/svg11.dtd">
<!-- Generated by graphviz version 2.36.0 (20140111.2315)
 -->
<!-- Title: xalloc Pages: 1 -->
<svg width="1681pt" height="1158pt"
 viewBox="0.00 0.00 1681.00 1158.00" xmlns="http://www.w3.org/2000/svg" xmlns:xlink="http://www.w3.org/1999/xlink">
<g id="graph0" class="graph" transform="scale(1 1) rotate(0) translate(4 1154)">
<title>xalloc</title>
<polygon fill="white" stroke="none" points="-4,4 -4,-1154 1677,-1154 1677,4 -4,4"/>
<!-- 246 -->
<g id="node1" class="node"><title>246</title>
<polygon fill="none" stroke="black" points="525.25,-198 458.75,-198 458.75,-162 525.25,-162 525.25,-198"/>
<text text-anchor="middle" x="492" y="-176.3" font-family="Times,serif" font-size="14.00">246: skip</text>
</g>
<!-- 233 -->
<g id="node11" class="node"><title>233</title>
<polygon fill="none" stroke="black" points="575.25,-124 488.75,-124 488.75,-88 575.25,-88 575.25,-124"/>
<text text-anchor="middle" x="532" y="-102.3" font-family="Times,serif" font-size="14.00">233: return p</text>
</g>
<!-- 246&#45;&gt;233 -->
<g id="edge1" class="edge"><title>246&#45;&gt;233</title>
<path fill="none" stroke="black" d="M501.479,-161.937C506.241,-153.365 512.116,-142.791 517.435,-133.217"/>
<polygon fill="black" stroke="black" points="520.514,-134.882 522.311,-124.441 514.395,-131.482 520.514,-134.882"/>
</g>
<!-- 245 -->
<g id="node2" class="node"><title>245</title>
<polygon fill="none" stroke="black" points="721.25,-374 460.75,-374 460.75,-338 721.25,-338 721.25,-374"/>
<text text-anchor="middle" x="591" y="-352.3" font-family="Times,serif" font-size="14.00">245: salloc(__cil_tmp5, &quot;Out of memory!!&quot;)</text>
</g>
<!-- 243 -->
<g id="node3" class="node"><title>243</title>
<polygon fill="grey" stroke="grey" points="589,-286 399,-286 399,-250 589,-250 589,-286"/>
<text text-anchor="middle" x="494" y="-264.3" font-family="Times,serif" font-size="14.00">243: call(@perror(__cil_tmp5))</text>
</g>
<!-- 245&#45;&gt;243 -->
<g id="edge2" class="edge"><title>245&#45;&gt;243</title>
<path fill="none" stroke="black" d="M590.412,-337.603C589.193,-326.802 586.007,-313.263 578,-304 573.796,-299.137 568.807,-294.936 563.388,-291.308"/>
<polygon fill="black" stroke="black" points="564.955,-288.168 554.57,-286.069 561.379,-294.186 564.955,-288.168"/>
</g>
<!-- 245&#45;&gt;243 -->
<g id="edge18" class="edge"><title>245&#45;&gt;243</title>
<path fill="none" stroke="red" d="M497.627,-337.907C481.081,-333.012 467.392,-327.05 462,-320 455.68,-311.736 459.111,-302.189 465.667,-293.606"/>
<polygon fill="red" stroke="red" points="468.348,-295.858 472.375,-286.058 463.116,-291.207 468.348,-295.858"/>
<text text-anchor="middle" x="518" y="-308.3" font-family="Times,serif" font-size="14.00">(xalloc,__cil_tmp5),</text>
</g>
<!-- 245&#45;&gt;233 -->
<g id="edge19" class="edge"><title>245&#45;&gt;233</title>
<path fill="none" stroke="red" d="M598.115,-337.728C606.049,-315.461 615.612,-276.465 598,-250 586.522,-232.752 567.998,-248.134 555,-232 543.185,-217.334 536.9,-166.647 534.024,-134.499"/>
<polygon fill="red" stroke="red" points="537.499,-134.059 533.176,-124.386 530.523,-134.644 537.499,-134.059"/>
<text text-anchor="middle" x="645.5" y="-220.3" font-family="Times,serif" font-size="14.00">xalloc&#45;2450,(xalloc,__cil_tmp5),</text>
</g>
<!-- 243&#45;&gt;246 -->
<g id="edge3" class="edge"><title>243&#45;&gt;246</title>
<path fill="none" stroke="black" d="M493.595,-249.597C493.32,-237.746 492.949,-221.817 492.635,-208.292"/>
<polygon fill="black" stroke="black" points="496.129,-208 492.397,-198.084 489.131,-208.163 496.129,-208"/>
</g>
<!-- 242 -->
<g id="node4" class="node"><title>242</title>
<polygon fill="none" stroke="black" points="732,-718 474,-718 474,-682 732,-682 732,-718"/>
<text text-anchor="middle" x="603" y="-696.3" font-family="Times,serif" font-size="14.00">242: alloc(tmp,[(size_t )((unsigned int )sz)])</text>
</g>
<!-- 240 -->
<g id="node5" class="node"><title>240</title>
<polygon fill="none" stroke="black" points="517.25,-630 374.75,-630 374.75,-594 517.25,-594 517.25,-630"/>
<text text-anchor="middle" x="446" y="-608.3" font-family="Times,serif" font-size="14.00">240: set(p,(char *)tmp)</text>
</g>
<!-- 242&#45;&gt;240 -->
<g id="edge4" class="edge"><title>242&#45;&gt;240</title>
<path fill="none" stroke="black" d="M593.902,-681.544C587.278,-670.438 577.324,-656.581 565,-648 553.623,-640.078 540.443,-633.927 527.086,-629.158"/>
<polygon fill="black" stroke="black" points="527.946,-625.755 517.353,-625.923 525.739,-632.398 527.946,-625.755"/>
</g>
<!-- 242&#45;&gt;240 -->
<g id="edge20" class="edge"><title>242&#45;&gt;240</title>
<path fill="none" stroke="red" d="M525.764,-681.908C512.903,-677.239 500.14,-671.364 489,-664 478.94,-657.35 469.95,-647.673 462.824,-638.53"/>
<polygon fill="red" stroke="red" points="465.574,-636.363 456.826,-630.387 459.938,-640.515 465.574,-636.363"/>
<text text-anchor="middle" x="525" y="-652.3" font-family="Times,serif" font-size="14.00">(xalloc,tmp),</text>
</g>
<!-- 242&#45;&gt;233 -->
<g id="edge21" class="edge"><title>242&#45;&gt;233</title>
<path fill="none" stroke="red" d="M644.561,-681.851C671.271,-667.764 701,-644.917 701,-613 701,-613 701,-613 701,-463 701,-431.441 686.683,-419.592 702,-392 709.18,-379.065 720.951,-385.704 730,-374 747.451,-351.428 750,-341.531 750,-313 750,-313 750,-313 750,-179 750,-144.429 649.902,-123.65 585.363,-113.845"/>
<polygon fill="red" stroke="red" points="585.734,-110.362 575.33,-112.366 584.713,-117.287 585.734,-110.362"/>
<text text-anchor="middle" x="738" y="-406.3" font-family="Times,serif" font-size="14.00">(xalloc,tmp),</text>
</g>
<!-- 237 -->
<g id="node7" class="node"><title>237</title>
<polygon fill="none" stroke="black" points="632.25,-482 259.75,-482 259.75,-446 632.25,-446 632.25,-482"/>
<text text-anchor="middle" x="446" y="-460.3" font-family="Times,serif" font-size="14.00">237: assume(((unsigned long )p)==((unsigned long )((void *)0)))</text>
</g>
<!-- 240&#45;&gt;237 -->
<g id="edge22" class="edge"><title>240&#45;&gt;237</title>
<path fill="none" stroke="red" d="M446,-593.966C446,-569.045 446,-522.374 446,-492.537"/>
<polygon fill="red" stroke="red" points="449.5,-492.378 446,-482.378 442.5,-492.378 449.5,-492.378"/>
<text text-anchor="middle" x="474.5" y="-534.3" font-family="Times,serif" font-size="14.00">(xalloc,p),</text>
</g>
<!-- 236 -->
<g id="node8" class="node"><title>236</title>
<polygon fill="none" stroke="black" points="386,-428 0,-428 0,-392 386,-392 386,-428"/>
<text text-anchor="middle" x="193" y="-406.3" font-family="Times,serif" font-size="14.00">236: assume(!(((unsigned long )p)==((unsigned long )((void *)0))))</text>
</g>
<!-- 240&#45;&gt;236 -->
<g id="edge23" class="edge"><title>240&#45;&gt;236</title>
<path fill="none" stroke="red" d="M374.667,-597.256C342.651,-588.822 305.529,-575.737 276,-556 240.09,-531.997 233.325,-520.113 213,-482 205.701,-468.313 200.832,-451.684 197.727,-437.96"/>
<polygon fill="red" stroke="red" points="201.145,-437.208 195.685,-428.129 194.292,-438.631 201.145,-437.208"/>
<text text-anchor="middle" x="304.5" y="-534.3" font-family="Times,serif" font-size="14.00">(xalloc,p),</text>
</g>
<!-- 229 -->
<g id="node12" class="node"><title>229</title>
<polygon fill="none" stroke="black" points="409.25,-556 342.75,-556 342.75,-520 409.25,-520 409.25,-556"/>
<text text-anchor="middle" x="376" y="-534.3" font-family="Times,serif" font-size="14.00">229: skip</text>
</g>
<!-- 240&#45;&gt;229 -->
<g id="edge5" class="edge"><title>240&#45;&gt;229</title>
<path fill="none" stroke="black" d="M429.411,-593.937C420.648,-584.924 409.732,-573.696 400.057,-563.744"/>
<polygon fill="black" stroke="black" points="402.437,-561.171 392.956,-556.441 397.418,-566.05 402.437,-561.171"/>
</g>
<!-- 238 -->
<g id="node6" class="node"><title>238</title>
<polygon fill="none" stroke="black" points="695,-894 605,-894 605,-858 695,-858 695,-894"/>
<text text-anchor="middle" x="650" y="-872.3" font-family="Times,serif" font-size="14.00">238: set(sz,1)</text>
</g>
<!-- 225 -->
<g id="node13" class="node"><title>225</title>
<polygon fill="none" stroke="black" points="712.25,-806 645.75,-806 645.75,-770 712.25,-770 712.25,-806"/>
<text text-anchor="middle" x="679" y="-784.3" font-family="Times,serif" font-size="14.00">225: skip</text>
</g>
<!-- 238&#45;&gt;225 -->
<g id="edge6" class="edge"><title>238&#45;&gt;225</title>
<path fill="none" stroke="black" d="M645.502,-857.909C643.666,-847.732 642.827,-834.749 647,-824 648.361,-820.493 650.256,-817.124 652.45,-813.954"/>
<polygon fill="black" stroke="black" points="655.251,-816.056 658.798,-806.072 649.8,-811.665 655.251,-816.056"/>
</g>
<!-- 238&#45;&gt;225 -->
<g id="edge24" class="edge"><title>238&#45;&gt;225</title>
<path fill="none" stroke="red" d="M655.63,-857.988C658.924,-848.067 663.174,-835.317 667,-824 667.926,-821.262 668.897,-818.405 669.869,-815.555"/>
<polygon fill="red" stroke="red" points="673.185,-816.674 673.111,-806.08 666.562,-814.408 673.185,-816.674"/>
<text text-anchor="middle" x="697.5" y="-828.3" font-family="Times,serif" font-size="14.00">(xalloc,sz),</text>
</g>
<!-- 237&#45;&gt;245 -->
<g id="edge7" class="edge"><title>237&#45;&gt;245</title>
<path fill="none" stroke="black" d="M469.297,-445.969C493.568,-428.226 531.771,-400.299 558.894,-380.471"/>
<polygon fill="black" stroke="black" points="561.272,-383.068 567.279,-374.341 557.141,-377.417 561.272,-383.068"/>
</g>
<!-- 237&#45;&gt;233 -->
<g id="edge25" class="edge"><title>237&#45;&gt;233</title>
<path fill="none" stroke="red" d="M429.962,-445.619C403.596,-415.722 352.109,-351.443 333,-286 328.515,-270.641 325.884,-264.33 333,-250 362.713,-190.164 430.85,-149.93 479.093,-127.764"/>
<polygon fill="red" stroke="red" points="480.762,-130.851 488.459,-123.571 477.901,-124.462 480.762,-130.851"/>
<text text-anchor="middle" x="361.5" y="-264.3" font-family="Times,serif" font-size="14.00">(xalloc,p),</text>
</g>
<!-- 236&#45;&gt;233 -->
<g id="edge8" class="edge"><title>236&#45;&gt;233</title>
<path fill="none" stroke="black" d="M222.729,-391.751C247.24,-375.058 278,-347.282 278,-313 278,-313 278,-313 278,-179 278,-157.259 290.994,-152.558 310,-142 338.096,-126.393 421.97,-116.378 478.196,-111.222"/>
<polygon fill="black" stroke="black" points="478.703,-114.69 488.353,-110.315 478.081,-107.718 478.703,-114.69"/>
</g>
<!-- 236&#45;&gt;233 -->
<g id="edge26" class="edge"><title>236&#45;&gt;233</title>
<path fill="none" stroke="red" d="M193,-391.657C193,-372.431 193,-340.5 193,-313 193,-313 193,-313 193,-179 193,-121.311 383.216,-109.649 478.677,-107.428"/>
<polygon fill="red" stroke="red" points="478.795,-110.927 488.721,-107.221 478.651,-103.928 478.795,-110.927"/>
<text text-anchor="middle" x="221.5" y="-264.3" font-family="Times,serif" font-size="14.00">(xalloc,p),</text>
</g>
<!-- 235 -->
<g id="node9" class="node"><title>235</title>
<polygon fill="none" stroke="black" points="698,-1002 570,-1002 570,-966 698,-966 698,-1002"/>
<text text-anchor="middle" x="634" y="-980.3" font-family="Times,serif" font-size="14.00">235: assume(sz&lt;=0)</text>
</g>
<!-- 235&#45;&gt;238 -->
<g id="edge9" class="edge"><title>235&#45;&gt;238</title>
<path fill="none" stroke="black" d="M671.361,-965.9C678.041,-961.09 684.105,-955.166 688,-948 695.641,-933.942 694.425,-926.653 688,-912 686.385,-908.316 684.169,-904.849 681.614,-901.636"/>
<polygon fill="black" stroke="black" points="684.075,-899.143 674.708,-894.192 678.943,-903.904 684.075,-899.143"/>
</g>
<!-- 235&#45;&gt;238 -->
<g id="edge27" class="edge"><title>235&#45;&gt;238</title>
<path fill="none" stroke="red" d="M626.899,-965.963C621.842,-951.326 616.923,-929.828 623,-912 624.09,-908.804 625.602,-905.673 627.36,-902.678"/>
<polygon fill="red" stroke="red" points="630.421,-904.403 633.193,-894.177 624.649,-900.443 630.421,-904.403"/>
<text text-anchor="middle" x="653.5" y="-926.3" font-family="Times,serif" font-size="14.00">(xalloc,sz),</text>
</g>
<!-- 234 -->
<g id="node10" class="node"><title>234</title>
<polygon fill="none" stroke="black" points="859,-948 717,-948 717,-912 859,-912 859,-948"/>
<text text-anchor="middle" x="788" y="-926.3" font-family="Times,serif" font-size="14.00">234: assume(!(sz&lt;=0))</text>
</g>
<!-- 234&#45;&gt;225 -->
<g id="edge10" class="edge"><title>234&#45;&gt;225</title>
<path fill="none" stroke="black" d="M776.812,-911.687C773.277,-906.089 769.406,-899.823 766,-894 748.127,-863.444 751.447,-850.521 728,-824 724.321,-819.839 720.06,-815.898 715.615,-812.264"/>
<polygon fill="black" stroke="black" points="717.576,-809.359 707.503,-806.075 713.33,-814.924 717.576,-809.359"/>
</g>
<!-- 234&#45;&gt;225 -->
<g id="edge28" class="edge"><title>234&#45;&gt;225</title>
<path fill="none" stroke="red" d="M785.897,-911.697C782.211,-888.669 772.488,-848.064 748,-824 740.449,-816.58 731.008,-810.412 721.556,-805.427"/>
<polygon fill="red" stroke="red" points="723.071,-802.272 712.552,-801.009 719.987,-808.556 723.071,-802.272"/>
<text text-anchor="middle" x="813.5" y="-872.3" font-family="Times,serif" font-size="14.00">(xalloc,sz),</text>
</g>
<!-- EXIT -->
<g id="node15" class="node"><title>EXIT</title>
<polygon fill="none" stroke="black" points="570.25,-36 493.75,-36 493.75,-0 570.25,-0 570.25,-36"/>
<text text-anchor="middle" x="532" y="-14.3" font-family="Times,serif" font-size="14.00">EXIT: skip</text>
</g>
<!-- 233&#45;&gt;EXIT -->
<g id="edge11" class="edge"><title>233&#45;&gt;EXIT</title>
<path fill="none" stroke="black" d="M530.828,-87.9185C530.49,-82.2225 530.167,-75.8405 530,-70 529.797,-62.8918 529.797,-61.1082 530,-54 530.073,-51.4448 530.176,-48.7859 530.297,-46.1262"/>
<polygon fill="black" stroke="black" points="533.795,-46.2525 530.828,-36.0815 526.805,-45.8826 533.795,-46.2525"/>
</g>
<!-- 233&#45;&gt;EXIT -->
<g id="edge29" class="edge"><title>233&#45;&gt;EXIT</title>
<path fill="none" stroke="red" d="M532,-87.5966C532,-75.7459 532,-59.8169 532,-46.2917"/>
<polygon fill="red" stroke="red" points="535.5,-46.084 532,-36.084 528.5,-46.084 535.5,-46.084"/>
<text text-anchor="middle" x="926" y="-58.3" font-family="Times,serif" font-size="14.00">xalloc&#45;2450,(xalloc,tmp),(xalloc,sz),(xalloc,p),(xalloc,__cil_tmp5),(recipient,tmp___6),(recipient,tmp___4),(recipient,tmp___1),(recipient,buf),</text>
</g>
<!-- 229&#45;&gt;237 -->
<g id="edge12" class="edge"><title>229&#45;&gt;237</title>
<path fill="none" stroke="black" d="M392.589,-519.937C401.352,-510.924 412.268,-499.696 421.943,-489.744"/>
<polygon fill="black" stroke="black" points="424.582,-492.05 429.044,-482.441 419.563,-487.171 424.582,-492.05"/>
</g>
<!-- 229&#45;&gt;236 -->
<g id="edge13" class="edge"><title>229&#45;&gt;236</title>
<path fill="none" stroke="black" d="M342.627,-527.352C315.787,-518.491 278.058,-503.461 250,-482 233.78,-469.593 219.415,-451.628 209.163,-436.873"/>
<polygon fill="black" stroke="black" points="211.809,-434.534 203.332,-428.179 205.996,-438.434 211.809,-434.534"/>
</g>
<!-- 225&#45;&gt;242 -->
<g id="edge14" class="edge"><title>225&#45;&gt;242</title>
<path fill="none" stroke="black" d="M677.647,-769.902C676.048,-759.22 672.567,-745.702 665,-736 661.532,-731.553 657.33,-727.58 652.767,-724.052"/>
<polygon fill="black" stroke="black" points="654.464,-720.97 644.244,-718.178 650.492,-726.734 654.464,-720.97"/>
</g>
<!-- 225&#45;&gt;242 -->
<g id="edge30" class="edge"><title>225&#45;&gt;242</title>
<path fill="none" stroke="red" d="M645.741,-781.116C628.997,-776.29 610.145,-767.591 600,-752 595.51,-745.1 594.67,-736.5 595.424,-728.339"/>
<polygon fill="red" stroke="red" points="598.889,-728.837 597.076,-718.398 591.984,-727.689 598.889,-728.837"/>
<text text-anchor="middle" x="630.5" y="-740.3" font-family="Times,serif" font-size="14.00">(xalloc,sz),</text>
</g>
<!-- 225&#45;&gt;233 -->
<g id="edge31" class="edge"><title>225&#45;&gt;233</title>
<path fill="none" stroke="red" d="M712.296,-776.524C744.351,-764.116 788,-740.049 788,-701 788,-701 788,-701 788,-179 788,-137.33 660.72,-118.627 585.654,-111.22"/>
<polygon fill="red" stroke="red" points="585.713,-107.71 575.427,-110.248 585.051,-114.678 585.713,-107.71"/>
<text text-anchor="middle" x="818.5" y="-460.3" font-family="Times,serif" font-size="14.00">(xalloc,sz),</text>
</g>
<!-- 223 -->
<g id="node14" class="node"><title>223</title>
<polygon fill="none" stroke="black" points="751.25,-1076 684.75,-1076 684.75,-1040 751.25,-1040 751.25,-1076"/>
<text text-anchor="middle" x="718" y="-1054.3" font-family="Times,serif" font-size="14.00">223: skip</text>
</g>
<!-- 223&#45;&gt;235 -->
<g id="edge15" class="edge"><title>223&#45;&gt;235</title>
<path fill="none" stroke="black" d="M698.093,-1039.94C687.292,-1030.68 673.767,-1019.09 661.928,-1008.94"/>
<polygon fill="black" stroke="black" points="663.925,-1006.04 654.055,-1002.19 659.37,-1011.36 663.925,-1006.04"/>
</g>
<!-- 223&#45;&gt;234 -->
<g id="edge16" class="edge"><title>223&#45;&gt;234</title>
<path fill="none" stroke="black" d="M727.586,-1039.74C739.473,-1018.35 759.844,-981.682 773.609,-956.904"/>
<polygon fill="black" stroke="black" points="776.732,-958.489 778.529,-948.047 770.613,-955.089 776.732,-958.489"/>
</g>
<!-- ENTRY -->
<g id="node16" class="node"><title>ENTRY</title>
<polygon fill="none" stroke="black" points="764,-1150 672,-1150 672,-1114 764,-1114 764,-1150"/>
<text text-anchor="middle" x="718" y="-1128.3" font-family="Times,serif" font-size="14.00">ENTRY: skip</text>
</g>
<!-- ENTRY&#45;&gt;245 -->
<g id="edge32" class="edge"><title>ENTRY&#45;&gt;245</title>
<path fill="none" stroke="red" d="M764.417,-1129.09C811.348,-1124.36 877,-1108.85 877,-1059 877,-1059 877,-1059 877,-463 877,-408.854 827.795,-413.264 778,-392 763.285,-385.716 747.442,-380.557 731.425,-376.322"/>
<polygon fill="red" stroke="red" points="731.991,-372.855 721.439,-373.803 730.279,-379.643 731.991,-372.855"/>
<text text-anchor="middle" x="967.5" y="-740.3" font-family="Times,serif" font-size="14.00">xalloc&#45;2450,(xalloc,__cil_tmp5),</text>
</g>
<!-- ENTRY&#45;&gt;242 -->
<g id="edge33" class="edge"><title>ENTRY&#45;&gt;242</title>
<path fill="none" stroke="red" d="M671.775,-1122.69C616.399,-1111.39 531,-1089.09 531,-1059 531,-1059 531,-1059 531,-787 531,-761.671 549.589,-739.878 567.877,-724.568"/>
<polygon fill="red" stroke="red" points="570.513,-726.946 576.19,-718 566.173,-721.453 570.513,-726.946"/>
<text text-anchor="middle" x="567" y="-926.3" font-family="Times,serif" font-size="14.00">(xalloc,tmp),</text>
</g>
<!-- ENTRY&#45;&gt;240 -->
<g id="edge34" class="edge"><title>ENTRY&#45;&gt;240</title>
<path fill="none" stroke="red" d="M671.859,-1128.27C594.256,-1122.41 446,-1105.16 446,-1059 446,-1059 446,-1059 446,-699 446,-679.404 446,-657.296 446,-640.402"/>
<polygon fill="red" stroke="red" points="449.5,-640.133 446,-630.133 442.5,-640.133 449.5,-640.133"/>
<text text-anchor="middle" x="474.5" y="-872.3" font-family="Times,serif" font-size="14.00">(xalloc,p),</text>
</g>
<!-- ENTRY&#45;&gt;235 -->
<g id="edge35" class="edge"><title>ENTRY&#45;&gt;235</title>
<path fill="none" stroke="red" d="M671.839,-1118.7C650.289,-1110.39 626.647,-1097 614,-1076 602.147,-1056.32 609.599,-1030.48 618.585,-1011.36"/>
<polygon fill="red" stroke="red" points="621.774,-1012.81 623.185,-1002.31 615.534,-1009.63 621.774,-1012.81"/>
<text text-anchor="middle" x="644.5" y="-1054.3" font-family="Times,serif" font-size="14.00">(xalloc,sz),</text>
</g>
<!-- ENTRY&#45;&gt;234 -->
<g id="edge36" class="edge"><title>ENTRY&#45;&gt;234</title>
<path fill="none" stroke="red" d="M734.701,-1113.54C743.536,-1103.35 753.807,-1089.81 760,-1076 777.282,-1037.45 783.917,-988.46 786.451,-958.435"/>
<polygon fill="red" stroke="red" points="789.954,-958.519 787.211,-948.286 782.974,-957.997 789.954,-958.519"/>
<text text-anchor="middle" x="803.5" y="-1054.3" font-family="Times,serif" font-size="14.00">(xalloc,sz),</text>
</g>
<!-- ENTRY&#45;&gt;233 -->
<g id="edge37" class="edge"><title>ENTRY&#45;&gt;233</title>
<path fill="none" stroke="red" d="M764.046,-1131.18C860.1,-1130.3 1073,-1121.34 1073,-1059 1073,-1059 1073,-1059 1073,-179 1073,-130.172 722.249,-113.296 585.592,-108.574"/>
<polygon fill="red" stroke="red" points="585.47,-105.068 575.358,-108.229 585.234,-112.064 585.47,-105.068"/>
<text text-anchor="middle" x="1373" y="-608.3" font-family="Times,serif" font-size="14.00">xalloc&#45;2450,(xalloc,__cil_tmp5),(recipient,tmp___6),(recipient,tmp___4),(recipient,tmp___1),(recipient,buf),</text>
</g>
<!-- ENTRY&#45;&gt;223 -->
<g id="edge17" class="edge"><title>ENTRY&#45;&gt;223</title>
<path fill="none" stroke="black" d="M718,-1113.94C718,-1105.81 718,-1095.88 718,-1086.7"/>
<polygon fill="black" stroke="black" points="721.5,-1086.44 718,-1076.44 714.5,-1086.44 721.5,-1086.44"/>
</g>
</g>
</svg>
